<svg width="69" height="69" viewBox="0 0 69 69" fill="none" xmlns="http://www.w3.org/2000/svg">
<path d="M54.434 64.0694H14.5654V69H54.434V64.0694Z" fill="white"/>
<path d="M48.7407 51.9195H20.2026V61.2862H48.7407V51.9195Z" fill="white"/>
<path d="M0 0V49.1787H69V0H0ZM65.2279 43.9797C65.2279 44.7426 64.6204 45.3501 63.8575 45.3501H5.14251C4.37961 45.3501 3.77211 44.7426 3.77211 43.9797V5.19902C3.77211 4.43612 4.37961 3.82862 5.14251 3.82862H63.8575C64.6204 3.82862 65.2279 4.43612 65.2279 5.19902V43.9797Z" fill="white"/>
<path d="M6.5127 42.6093H62.4869V6.5694H6.5127V42.6093ZM43.7535 27.4361C43.7535 27.1677 43.923 26.9416 44.1349 26.8286L51.8628 23.2684L44.1349 19.7647C43.9089 19.6517 43.7535 19.4398 43.7535 19.1572V16.3882C43.7535 15.922 44.2338 15.6253 44.6435 15.8231L56.2848 21.234C56.5108 21.347 56.6662 21.559 56.6662 21.8415V24.9072C56.6662 25.1757 56.4967 25.4017 56.2848 25.5147L44.6435 30.8692C44.2197 31.0669 43.7393 30.7561 43.7393 30.2899V27.4361H43.7535ZM26.6306 35.7715L37.3395 12.8139C37.4525 12.5878 37.6644 12.4324 37.947 12.4324H40.3769C40.8714 12.4324 41.2105 12.9551 40.9986 13.4072L30.2756 36.3649C30.1626 36.5909 29.9506 36.7463 29.6681 36.7463H27.2381C26.7578 36.7463 26.4187 36.2236 26.6306 35.7715ZM12.3757 21.8556C12.3757 21.5872 12.5452 21.3612 12.7572 21.2481L24.4126 15.8372C24.8223 15.6394 25.3026 15.9502 25.3026 16.4023V19.2279C25.3026 19.4963 25.1331 19.7223 24.9212 19.8354L17.1933 23.3391L24.9212 26.8992C25.1472 27.0123 25.3026 27.2242 25.3026 27.5067V30.3888C25.3026 30.8409 24.8364 31.1517 24.4126 30.9539L12.7572 25.5995C12.5311 25.4865 12.3757 25.2746 12.3757 24.992V21.8556Z" fill="white"/>
</svg>
