<svg width="70" height="70" viewBox="0 0 70 70" fill="none" xmlns="http://www.w3.org/2000/svg">
<path d="M38.3871 7.90311H6.77441V23.7096H38.3871V7.90311ZM36.1293 21.4515H9.03252V10.1612H36.1293V21.4515Z" fill="white"/>
<path d="M22.5805 31.6127C15.7329 31.6127 10.1611 37.1845 10.1611 44.032C10.1611 50.8796 15.7329 56.4514 22.5805 56.4514C29.428 56.4514 34.9998 50.8796 34.9998 44.032C34.9998 37.1845 29.428 31.6127 22.5805 31.6127ZM13.3574 48.2715C12.7614 46.9789 12.4192 45.5461 12.4192 44.032C12.4192 38.4287 16.9772 33.8708 22.5805 33.8708C24.0946 33.8708 25.5273 34.2129 26.82 34.809L13.3574 48.2715ZM14.5654 50.2565L28.8035 36.0184C29.4731 36.5388 30.0736 37.1396 30.5941 37.809L16.356 52.0471C15.6878 51.5266 15.0861 50.9249 14.5654 50.2565ZM32.7417 44.032C32.7417 49.6356 28.1838 54.1933 22.5805 54.1933C21.0664 54.1933 19.6336 53.8511 18.3409 53.2551L31.8035 39.7925C32.3996 41.0852 32.7417 42.5179 32.7417 44.032Z" fill="white"/>
<path d="M23.7098 28.2258H21.4517V30.4839H23.7098V28.2258Z" fill="white"/>
<path d="M23.7098 57.5804H21.4517V59.8385H23.7098V57.5804Z" fill="white"/>
<path d="M38.387 42.903H36.1289V45.1611H38.387V42.903Z" fill="white"/>
<path d="M9.03252 42.903H6.77441V45.1611H9.03252V42.903Z" fill="white"/>
<path d="M33.0727 35.7982L34.6694 34.2015L32.4117 31.9438L30.815 33.5405L33.0727 35.7982Z" fill="white"/>
<path d="M10.4918 53.8632L12.7495 56.1209L14.3462 54.5242L12.0885 52.2665L10.4918 53.8632Z" fill="white"/>
<path d="M30.8144 54.5245L32.4111 56.1212L34.6689 53.8634L33.0722 52.2667L30.8144 54.5245Z" fill="white"/>
<path d="M12.0889 35.7982L14.3467 33.5404L12.75 31.9437L10.4922 34.2015L12.0889 35.7982Z" fill="white"/>
<path d="M13.5481 12.4193H11.29V19.1934H13.5481V12.4193Z" fill="white"/>
<path d="M18.0647 12.4193H15.8066V19.1934H18.0647V12.4193Z" fill="white"/>
<path d="M33.8709 12.4193H31.6128V14.6774H33.8709V12.4193Z" fill="white"/>
<path d="M22.5809 12.4193H20.3228V14.6774H22.5809V12.4193Z" fill="white"/>
<path d="M33.8709 16.9355H31.6128V19.1936H33.8709V16.9355Z" fill="white"/>
<path d="M69.9998 15.8065H68.8707V7.90312H66.6126V0H64.3545V7.90312H62.0964V15.8062H60.9674V18.0643H62.0964V27.0965C62.0964 28.5665 63.0436 29.8084 64.3545 30.276V51.9352C64.3545 59.4061 58.277 65.4836 50.8061 65.4836H45.1609V58.7095H47.4192C51.7761 58.7095 55.3223 55.1632 55.3223 50.8064V30.2762C56.6332 29.8089 57.5804 28.5668 57.5804 27.0968V18.0643H58.7095V15.8062H57.5804V7.90312H55.3223V0H53.0642V7.90312H50.8061V15.8062H49.6771V18.0643H50.8061V27.0965C50.8061 28.5665 51.7533 29.8084 53.0642 30.276V50.8061C53.0642 53.919 50.5318 56.4514 47.419 56.4514H45.1609V3.38715C45.1611 1.51979 43.6416 0 41.774 0H3.38715C1.51979 0 0 1.51979 0 3.38715V66.6128C0 68.4802 1.51979 70 3.38715 70H41.774C43.2439 70 44.4859 69.0528 44.9534 67.7419H50.8064C59.5225 67.7419 66.6128 60.6515 66.6128 51.9354V30.2762C67.9238 29.8089 68.8709 28.5668 68.8709 27.0968V18.0643H70L69.9998 15.8065ZM53.0645 10.1612H55.3226V15.8065H53.0645V10.1612ZM53.0642 18.0643H55.3223V27.0965C55.3223 27.7198 54.8166 28.2256 54.1933 28.2256C53.57 28.2256 53.0642 27.7198 53.0642 27.0965V18.0643ZM42.903 66.6126C42.903 67.2359 42.3973 67.7417 41.774 67.7417H3.38715C2.76383 67.7417 2.2581 67.2359 2.2581 66.6126V3.38715C2.2581 2.76383 2.76383 2.2581 3.38715 2.2581H41.774C42.3973 2.2581 42.903 2.76383 42.903 3.38715V66.6126ZM66.6126 27.0968C66.6126 27.7201 66.1069 28.2258 65.4836 28.2258C64.8602 28.2258 64.3545 27.7201 64.3545 27.0968V18.0643H66.6126V27.0968ZM66.6128 15.8065H64.3547V10.1612H66.6128V15.8065Z" fill="white"/>
<path d="M9.03232 62.0966H4.51611V64.3547H9.03232V62.0966Z" fill="white"/>
<path d="M40.6451 62.0966H36.1289V64.3547H40.6451V62.0966Z" fill="white"/>
</svg>
