<svg width="90" height="90" viewBox="0 0 90 90" fill="none" xmlns="http://www.w3.org/2000/svg">
<path d="M40.3348 24.6869C41.1402 24.6869 41.7927 24.0341 41.7927 23.229V21.6739C41.7927 20.8687 41.1402 20.216 40.3348 20.216C39.5295 20.216 38.877 20.8687 38.877 21.6739V23.229C38.877 24.0341 39.5295 24.6869 40.3348 24.6869Z" fill="white"/>
<path d="M49.6649 24.6869C50.4702 24.6869 51.1228 24.0341 51.1228 23.229V21.6739C51.1228 20.8687 50.4702 20.216 49.6649 20.216C48.8596 20.216 48.207 20.8687 48.207 21.6739V23.229C48.207 24.0341 48.8596 24.6869 49.6649 24.6869Z" fill="white"/>
<path d="M75.1983 60.8019L72.8941 59.6498V46.218C74.6999 45.608 76.0042 43.899 76.0042 41.8899C76.0042 39.371 73.955 37.3218 71.4362 37.3218H65.1187V35.6695C65.1187 34.8644 64.4662 34.2117 63.6608 34.2117H60.4535V26.3391C60.4535 21.2754 58.0052 16.7729 54.2305 13.9527C54.231 13.9346 54.2332 13.9168 54.2332 13.8985V8.8962C56.039 8.28622 57.3433 6.57719 57.3433 4.56803C57.3433 2.0492 55.2941 0 52.7753 0C50.2565 0 48.2073 2.0492 48.2073 4.56803C48.2073 6.57719 49.5116 8.28622 51.3174 8.8962V12.2414C49.3872 11.3729 47.2501 10.8855 44.9999 10.8855C42.7497 10.8855 40.6127 11.3729 38.6824 12.2414V8.8962C40.4883 8.28622 41.7926 6.57719 41.7926 4.56803C41.7926 2.0492 39.7434 0 37.2245 0C34.7057 0 32.6565 2.0492 32.6565 4.56803C32.6565 6.57719 33.9608 8.28622 35.7667 8.8962V13.8985C35.7667 13.9168 35.7688 13.9346 35.7694 13.9527C31.9946 16.7729 29.5464 21.2754 29.5464 26.3391V34.2117H26.339C25.5337 34.2117 24.8811 34.8644 24.8811 35.6695V37.3218H18.5636C16.0448 37.3218 13.9956 39.371 13.9956 41.8899C13.9956 43.899 15.2999 45.608 17.1058 46.218V59.6498L14.8015 60.8019C14.3078 61.0488 13.9956 61.5536 13.9956 62.1058V66.7711C13.9956 67.3233 14.3076 67.8281 14.8015 68.075L17.9117 69.6301C18.121 69.7348 18.3436 69.7842 18.5627 69.7842C19.0974 69.7842 19.6123 69.4887 19.8678 68.9781C20.228 68.2579 19.936 67.3822 19.2158 67.0222L16.9114 65.8701V63.007L18.5636 62.1809L20.2159 63.007V65.216C20.2159 66.0211 20.8685 66.6739 21.6738 66.6739C22.4791 66.6739 23.1317 66.0211 23.1317 65.216V62.1058C23.1317 61.5536 22.8197 61.0488 22.3258 60.8019L20.0215 59.6498V46.4579H24.8811V52.7754C24.8811 57.8391 27.3294 62.3416 31.1042 65.1618C31.1036 65.1798 31.1014 65.1977 31.1014 65.216V74.5464C31.1014 76.5556 32.4058 78.2646 34.2116 78.8746V80.8639H31.0042C30.4586 80.8639 29.9588 81.1683 29.7087 81.6531L26.9056 87.0842H26.339C25.5337 87.0842 24.8811 87.737 24.8811 88.5421C24.8811 89.3473 25.5337 90 26.339 90H40.3347C41.14 90 41.7926 89.3473 41.7926 88.5421V82.3218C41.7926 81.5167 41.14 80.8639 40.3347 80.8639H37.1274V78.8746C38.9332 78.2646 40.2375 76.5556 40.2375 74.5464V68.2264C40.27 68.2266 40.302 68.2289 40.3347 68.2289H49.6652C49.6978 68.2289 49.7299 68.2266 49.7623 68.2264V74.5464C49.7623 76.5556 51.0667 78.2646 52.8725 78.8746V80.8639H49.6652C48.8598 80.8639 48.2073 81.5167 48.2073 82.3218V88.5421C48.2073 89.3473 48.8598 90 49.6652 90H63.6608C64.4662 90 65.1187 89.3473 65.1187 88.5421C65.1187 87.737 64.4662 87.0842 63.6608 87.0842H63.0942L60.2912 81.6531C60.041 81.1683 59.5412 80.8639 58.9956 80.8639H55.7883V78.8746C57.5941 78.2646 58.8984 76.5556 58.8984 74.5464V65.216C58.8984 65.1977 58.8963 65.1798 58.8957 65.1618C62.6704 62.3416 65.1187 57.8391 65.1187 52.7754V46.4579H69.9783V59.6498L67.6741 60.8019C67.1804 61.0488 66.8682 61.5536 66.8682 62.1058V65.216C66.8682 66.0211 67.5207 66.6739 68.3261 66.6739C69.1314 66.6739 69.7839 66.0211 69.7839 65.216V63.0068L71.4362 62.1807L73.0885 63.0068V65.8699L70.7842 67.022C70.0642 67.382 69.7723 68.2577 70.1323 68.9779C70.3875 69.4887 70.9026 69.7842 71.4374 69.784C71.6565 69.784 71.8788 69.7345 72.0884 69.6299L75.1985 68.0748C75.6923 67.8279 76.0044 67.3231 76.0044 66.7709V62.1056C76.0042 61.5536 75.6923 61.0488 75.1983 60.8019ZM52.7753 2.91577C53.6864 2.91577 54.4276 3.65695 54.4276 4.56803C54.4276 5.47911 53.6864 6.2203 52.7753 6.2203C51.8642 6.2203 51.123 5.47911 51.123 4.56803C51.123 3.65695 51.8642 2.91577 52.7753 2.91577ZM37.2245 2.91577C38.1356 2.91577 38.8768 3.65695 38.8768 4.56803C38.8768 5.47911 38.1356 6.2203 37.2245 6.2203C36.3135 6.2203 35.5723 5.47911 35.5723 4.56803C35.5723 3.65695 36.3135 2.91577 37.2245 2.91577ZM38.8768 87.0842H30.1869L31.8924 83.7797H38.8768V87.0842ZM59.813 87.0842H51.123V83.7797H58.1075L59.813 87.0842ZM71.4362 43.5421C70.5251 43.5421 69.7839 42.8009 69.7839 41.8899C69.7839 40.9788 70.5251 40.2376 71.4362 40.2376C72.3473 40.2376 73.0885 40.9788 73.0885 41.8899C73.0885 42.8009 72.3473 43.5421 71.4362 43.5421ZM44.9999 13.8013C51.9132 13.8013 57.5377 19.4258 57.5377 26.3391V27.9914H32.4621V26.3391C32.4621 19.4258 38.0866 13.8013 44.9999 13.8013ZM32.4621 30.9071H57.5377V34.2117H32.4621V30.9071ZM18.5636 40.2376C19.4747 40.2376 20.2159 40.9788 20.2159 41.8899C20.2159 42.8009 19.4747 43.5421 18.5636 43.5421C17.6526 43.5421 16.9114 42.8009 16.9114 41.8899C16.9114 40.9788 17.6526 40.2376 18.5636 40.2376ZM22.8212 43.5421C23.0209 43.0293 23.1317 42.4724 23.1317 41.8899C23.1317 41.3073 23.0209 40.7504 22.8212 40.2376H24.8811V43.5421H22.8212ZM35.6695 76.1987C34.7584 76.1987 34.0172 75.4575 34.0172 74.5464C34.0172 73.6354 34.7584 72.8942 35.6695 72.8942C36.5806 72.8942 37.3217 73.6354 37.3217 74.5464C37.3217 75.4575 36.5806 76.1987 35.6695 76.1987ZM37.3217 70.2888C36.809 70.0892 36.252 69.9784 35.6695 69.9784C35.0869 69.9784 34.53 70.0892 34.0172 70.2888V66.8731C35.063 67.3437 36.1688 67.7031 37.3217 67.9319V70.2888ZM27.7969 52.7754V37.1274H43.542V41.987H38.7796C35.4034 41.987 32.6565 44.7339 32.6565 48.1102C32.6565 51.4864 35.4034 54.2333 38.7796 54.2333H43.542V65.3132H40.3347C33.4214 65.3132 27.7969 59.6887 27.7969 52.7754ZM38.7796 51.3175C37.0111 51.3175 35.5723 49.8787 35.5723 48.1102C35.5723 46.3416 37.0111 44.9028 38.7796 44.9028H51.2202C52.9887 44.9028 54.4276 46.3416 54.4276 48.1102C54.4276 49.8787 52.9887 51.3175 51.2202 51.3175H38.7796ZM54.3304 76.1987C53.4193 76.1987 52.6781 75.4575 52.6781 74.5464C52.6781 73.6354 53.4193 72.8942 54.3304 72.8942C55.2415 72.8942 55.9826 73.6354 55.9826 74.5464C55.9826 75.4575 55.2415 76.1987 54.3304 76.1987ZM55.9826 70.2888C55.4699 70.0892 54.9129 69.9784 54.3304 69.9784C53.7478 69.9784 53.1909 70.0892 52.6781 70.2888V67.9319C53.831 67.7031 54.9369 67.3437 55.9826 66.8731V70.2888ZM62.2029 52.7754C62.2029 59.6887 56.5784 65.3132 49.6652 65.3132H46.4578V54.2333H51.2202C54.5965 54.2333 57.3433 51.4864 57.3433 48.1102C57.3433 44.7339 54.5965 41.987 51.2202 41.987H46.4578V37.1274H62.2029V52.7754ZM65.1187 40.2376H67.1786C66.979 40.7504 66.8682 41.3073 66.8682 41.8899C66.8682 42.4724 66.979 43.0293 67.1786 43.5421H65.1187V40.2376Z" fill="white"/>
</svg>
