<svg width="571" height="297" viewBox="0 0 571 297" fill="none" xmlns="http://www.w3.org/2000/svg">
<path d="M516.594 111.13L511.138 125.09L515.006 126.602L520.463 112.642L516.594 111.13Z" fill="#367CFF"/>
<path d="M175.738 76.8976L172.644 79.6687L182.644 90.834L185.738 88.0629L175.738 76.8976Z" fill="#0CBC8B"/>
<path d="M221.583 126.871L209.587 135.857L212.077 139.182L224.074 130.196L221.583 126.871Z" fill="#367CFF"/>
<path d="M360.334 23.7556L357.488 26.7805L368.404 37.0525L371.25 34.0277L360.334 23.7556Z" fill="#367CFF"/>
<path d="M280.961 27.0957L273.491 40.0906L277.092 42.1607L284.562 29.1659L280.961 27.0957Z" fill="#0CBC8B"/>
<path d="M389.442 138.223L385.929 140.439L393.928 153.115L397.441 150.898L389.442 138.223Z" fill="#0CBC8B"/>
<path d="M226.564 199.947L222.849 201.804L229.547 215.212L233.263 213.356L226.564 199.947Z" fill="#0CBC8B"/>
<path d="M172.203 164.667L167.898 179.025L171.877 180.217L176.181 165.86L172.203 164.667Z" fill="#367CFF"/>
<path d="M432.214 209.407L419.766 217.755L422.079 221.204L434.528 212.856L432.214 209.407Z" fill="#367CFF"/>
<path d="M434.078 3.11667e-05L426.608 12.9945L430.209 15.0646L437.679 2.07009L434.078 3.11667e-05Z" fill="#0CBC8B"/>
<path d="M18.8685 106.309L15 107.821L20.4566 121.781L24.3251 120.269L18.8685 106.309Z" fill="#0CBC8B"/>
<path d="M420.448 89.0627L417.958 92.3875L429.954 101.373L432.445 98.0485L420.448 89.0627Z" fill="#0CBC8B"/>
<path d="M83.4712 27.8204L72.5552 38.0924L75.4016 41.1173L86.3176 30.8453L83.4712 27.8204Z" fill="#367CFF"/>
<path d="M204.379 15.5881L200.778 17.6582L208.248 30.653L211.849 28.5829L204.379 15.5881Z" fill="#367CFF"/>
<path d="M57.5054 178.745L49.5063 191.42L53.019 193.637L61.018 180.961L57.5054 178.745Z" fill="#0CBC8B"/>
<path d="M22.0752 213.468L19.7617 216.919L32.2173 225.268L34.5308 221.816L22.0752 213.468Z" fill="#367CFF"/>
<path d="M502.618 47.938L499.017 50.0081L506.487 63.0025L510.088 60.9325L502.618 47.938Z" fill="#367CFF"/>
<path d="M346.562 83.3511L336.562 94.5164L339.656 97.2874L349.656 86.1221L346.562 83.3511Z" fill="#367CFF"/>
<path d="M258.775 209.202L252.077 222.611L255.792 224.467L262.491 211.059L258.775 209.202Z" fill="#0CBC8B"/>
<path d="M313.139 173.923L309.161 175.116L313.465 189.473L317.443 188.281L313.139 173.923Z" fill="#367CFF"/>
<path d="M314.478 182.117L300.322 171.355C300.01 171.119 299.653 170.95 299.273 170.859C298.893 170.768 298.499 170.757 298.114 170.827C297.73 170.897 297.364 171.047 297.041 171.266C296.717 171.485 296.443 171.769 296.235 172.1C295.87 172.723 295.75 173.459 295.897 174.165C296.045 174.872 296.449 175.498 297.032 175.924L300.068 178.231L287.192 175.357C285.766 175.012 283.795 175.501 283.514 177.127C283.365 177.745 283.43 178.395 283.698 178.972C283.967 179.549 284.422 180.018 284.991 180.302C284.985 180.314 284.979 180.328 284.976 180.341C284.975 180.352 284.975 180.363 284.976 180.374L282.776 179.842C282.369 179.744 281.945 179.738 281.535 179.825C281.125 179.911 280.739 180.088 280.406 180.343C280.073 180.597 279.801 180.923 279.61 181.295C279.419 181.668 279.313 182.079 279.301 182.498C279.295 183.158 279.515 183.8 279.926 184.317C280.337 184.834 280.912 185.194 281.556 185.337L282.491 185.563C282.497 185.593 282.508 185.622 282.524 185.648C281.856 185.642 281.208 185.874 280.696 186.302C280.183 186.73 279.84 187.326 279.727 187.984C279.624 188.708 279.798 189.444 280.213 190.045C280.629 190.646 281.256 191.068 281.97 191.227L284.295 191.789C284.256 191.804 284.222 191.829 284.195 191.86C284.168 191.891 284.149 191.928 284.139 191.968C284.129 192.016 284.134 192.066 284.153 192.112C283.557 192.271 283.029 192.622 282.652 193.111C282.275 193.6 282.069 194.199 282.066 194.816C282.075 195.464 282.303 196.09 282.713 196.593C283.123 197.095 283.69 197.445 284.323 197.585L303.935 202.323C306.679 202.985 309.558 202.814 312.203 201.83C314.849 200.845 317.14 199.094 318.784 196.799C320.201 194.821 320.791 192.367 320.428 189.961C320.065 187.554 318.778 185.384 316.84 183.911L314.478 182.117Z" fill="#E98862"/>
<g opacity="0.2">
<path opacity="0.2" d="M297.722 183.211C297.706 183.276 297.665 183.333 297.607 183.369C297.549 183.404 297.48 183.416 297.413 183.401L285.171 180.649C285.138 180.642 285.106 180.628 285.078 180.608C285.05 180.589 285.027 180.564 285.008 180.535C284.99 180.506 284.978 180.474 284.972 180.44C284.966 180.407 284.967 180.372 284.975 180.339C284.982 180.306 284.996 180.274 285.016 180.246C285.035 180.218 285.06 180.195 285.089 180.176C285.118 180.158 285.15 180.146 285.184 180.14C285.217 180.134 285.252 180.135 285.285 180.143L297.527 182.894C297.561 182.902 297.592 182.916 297.62 182.936C297.648 182.955 297.672 182.98 297.69 183.009C297.708 183.038 297.721 183.07 297.726 183.104C297.732 183.138 297.731 183.172 297.723 183.206L297.722 183.211Z" fill="#0C0C0C"/>
</g>
<g opacity="0.2">
<path opacity="0.2" d="M296.658 188.643C296.642 188.71 296.6 188.767 296.542 188.803C296.483 188.838 296.413 188.85 296.347 188.834L282.684 185.766C282.651 185.758 282.619 185.744 282.591 185.724C282.563 185.705 282.54 185.68 282.521 185.651C282.503 185.622 282.491 185.589 282.485 185.556C282.479 185.522 282.48 185.487 282.488 185.454C282.505 185.388 282.547 185.331 282.605 185.294C282.663 185.258 282.732 185.245 282.8 185.258L296.462 188.326C296.496 188.334 296.527 188.348 296.555 188.367C296.583 188.387 296.607 188.412 296.625 188.441C296.643 188.47 296.656 188.502 296.661 188.536C296.667 188.57 296.666 188.604 296.658 188.638V188.643Z" fill="#0C0C0C"/>
</g>
<g opacity="0.2">
<path opacity="0.2" d="M295.541 194.534C295.524 194.6 295.483 194.657 295.425 194.692C295.367 194.728 295.298 194.74 295.232 194.725L284.333 192.277C284.266 192.262 284.208 192.221 284.171 192.163C284.134 192.105 284.122 192.034 284.137 191.967C284.152 191.9 284.193 191.841 284.251 191.804C284.309 191.768 284.38 191.755 284.447 191.77L295.345 194.218C295.379 194.225 295.41 194.239 295.438 194.259C295.466 194.279 295.49 194.304 295.509 194.333C295.527 194.362 295.539 194.394 295.545 194.428C295.551 194.461 295.55 194.496 295.542 194.529L295.541 194.534Z" fill="#0C0C0C"/>
</g>
<path d="M247.267 108.098L255.171 92.1688C255.345 91.8188 255.59 91.5088 255.89 91.2585C256.19 91.0082 256.539 90.8232 256.914 90.7152C257.29 90.6071 257.684 90.5785 258.071 90.631C258.458 90.6836 258.83 90.8162 259.163 91.0204C259.767 91.4162 260.202 92.0221 260.384 92.7206C260.566 93.419 260.483 94.1603 260.149 94.8006L258.454 98.2164L268.713 89.9233C269.838 88.981 271.82 88.5443 272.794 89.8755C273.202 90.3634 273.433 90.9751 273.448 91.6109C273.464 92.2467 273.264 92.8691 272.881 93.3765C272.892 93.3849 272.903 93.3945 272.912 93.405C272.918 93.4142 272.923 93.4237 272.927 93.4336L274.662 91.9798C274.983 91.7109 275.361 91.5171 275.766 91.4125C276.172 91.3079 276.596 91.2951 277.008 91.3752C277.419 91.4552 277.807 91.626 278.144 91.8751C278.481 92.1243 278.758 92.4454 278.955 92.8152C279.254 93.4038 279.341 94.0771 279.203 94.7225C279.065 95.3678 278.709 95.9462 278.196 96.3608L277.457 96.9792C277.466 97.0087 277.468 97.0395 277.465 97.07C278.061 96.768 278.744 96.6877 279.393 96.8434C280.043 96.9991 280.615 97.3807 281.009 97.9199C281.422 98.5228 281.593 99.2594 281.487 99.9826C281.382 100.706 281.007 101.363 280.438 101.822L278.605 103.357C278.646 103.353 278.687 103.36 278.726 103.375C278.764 103.391 278.798 103.416 278.825 103.447C278.855 103.487 278.873 103.534 278.877 103.583C279.482 103.461 280.11 103.541 280.665 103.812C281.22 104.082 281.671 104.527 281.948 105.079C282.227 105.664 282.301 106.326 282.157 106.958C282.013 107.59 281.66 108.155 281.155 108.562L265.688 121.518C263.525 123.33 260.869 124.455 258.062 124.749C255.254 125.042 252.423 124.49 249.932 123.164C247.784 122.021 246.166 120.085 245.422 117.768C244.678 115.451 244.867 112.935 245.948 110.755L247.267 108.098Z" fill="#E98862"/>
<g opacity="0.2">
<path opacity="0.2" d="M262.766 101.635C262.81 101.688 262.872 101.721 262.94 101.727C263.008 101.733 263.076 101.712 263.129 101.669L272.876 93.768C272.93 93.7246 272.964 93.6618 272.971 93.5933C272.978 93.5248 272.958 93.4563 272.915 93.4028C272.871 93.3493 272.808 93.3152 272.74 93.308C272.671 93.3009 272.603 93.3212 272.549 93.3646L262.802 101.266C262.749 101.309 262.715 101.371 262.708 101.44C262.701 101.508 262.721 101.576 262.764 101.629L262.766 101.635Z" fill="#0C0C0C"/>
</g>
<g opacity="0.2">
<path opacity="0.2" d="M266.131 106.031C266.176 106.083 266.238 106.116 266.306 106.122C266.374 106.128 266.442 106.107 266.495 106.064L277.373 97.2465C277.426 97.2032 277.46 97.1407 277.467 97.0726C277.474 97.0046 277.454 96.9365 277.411 96.8831C277.366 96.832 277.304 96.7996 277.237 96.7925C277.169 96.7854 277.102 96.804 277.048 96.8447L266.166 105.661C266.113 105.704 266.079 105.766 266.072 105.834C266.065 105.902 266.085 105.971 266.127 106.024L266.131 106.031Z" fill="#0C0C0C"/>
</g>
<g opacity="0.2">
<path opacity="0.2" d="M269.75 110.812C269.794 110.864 269.856 110.897 269.924 110.903C269.992 110.909 270.06 110.889 270.113 110.845L278.79 103.812C278.844 103.768 278.878 103.706 278.885 103.637C278.892 103.569 278.872 103.5 278.829 103.446C278.785 103.393 278.722 103.359 278.654 103.352C278.585 103.345 278.517 103.365 278.463 103.408L269.784 110.442C269.731 110.485 269.697 110.548 269.69 110.616C269.683 110.684 269.703 110.752 269.745 110.805L269.75 110.812Z" fill="#0C0C0C"/>
</g>
<path d="M69.8792 94.4403C69.8792 94.4403 68.7645 111.166 65.0019 117.233C54.1683 134.703 51.0298 154.355 61.8784 164.623C72.7269 174.891 141.923 175.034 147.165 151.418C151.578 131.535 142.107 129.397 139.803 112.997C138.76 105.576 135.892 90.0142 135.892 90.0142" fill="#0A0A0A"/>
<path d="M129.256 147.955C129.137 147.94 127.811 169.933 102.261 168.016C84.5734 166.69 78.2668 147.923 77.8618 147.923C79.7688 147.518 82.98 146.928 83.8268 146.476C86.6123 144.98 90.0572 143.422 90.9564 138.013C91.4756 134.898 90.5956 118.947 90.8661 115.792L118.017 121.854C117.637 128.516 114.982 143.958 124.289 146.691C125.837 147.145 127.505 147.561 129.256 147.955Z" fill="#E98862"/>
<path opacity="0.5" d="M118.397 140.381C117.972 139.011 117.698 137.598 117.581 136.167C117.282 132.904 117.342 129.617 117.758 126.367C112.24 125.622 107.042 123.344 102.754 119.792C102.249 121.654 99.4765 129.79 100.244 131.559C101.694 134.904 108.513 140.381 118.397 140.381Z" fill="#0C0C0C"/>
<path d="M114.886 133.529C104.182 134.568 90.3317 130.283 87.4626 116.028L84.8739 103.165C82.0049 88.9102 87.1662 75.8473 100.588 73.1459C114.01 70.4461 126.368 79.9811 129.237 94.2366L130.383 99.9312C131.484 105.401 133.985 131.681 114.886 133.529Z" fill="#E98862"/>
<path opacity="0.1" d="M108.082 114.849C109.843 114.639 111.147 113.421 110.992 112.129C110.838 110.837 109.285 109.96 107.524 110.17C105.762 110.38 104.459 111.598 104.613 112.89C104.767 114.182 106.32 115.059 108.082 114.849Z" fill="#0C0C0C"/>
<path opacity="0.1" d="M126.696 109.683C126.852 110.973 128.407 111.849 130.169 111.642C130.473 111.605 130.773 111.537 131.063 111.439C131.145 109.9 131.15 108.421 131.105 107.05C130.616 106.928 130.108 106.898 129.608 106.963C127.846 107.17 126.544 108.388 126.696 109.683Z" fill="#0C0C0C"/>
<path opacity="0.5" d="M118.912 113.671C118.921 113.67 118.93 113.669 118.938 113.667C119.482 113.554 120.02 113.41 120.548 113.238C121.336 112.974 122.365 112.541 122.224 111.828C122.061 111.016 118.07 102.7 117.617 101.756C117.599 101.713 117.572 101.675 117.538 101.643C117.504 101.611 117.465 101.586 117.421 101.57C117.377 101.553 117.331 101.546 117.285 101.548C117.238 101.55 117.193 101.562 117.151 101.582C117.109 101.602 117.071 101.63 117.041 101.665C117.01 101.7 116.987 101.741 116.972 101.785C116.957 101.829 116.952 101.876 116.956 101.922C116.96 101.969 116.973 102.014 116.994 102.055C118.696 105.596 121.436 111.419 121.546 111.966C121.46 112.221 120.153 112.718 118.803 112.991C118.759 112.998 118.716 113.014 118.677 113.038C118.638 113.061 118.605 113.093 118.578 113.129C118.552 113.166 118.533 113.208 118.522 113.252C118.512 113.296 118.51 113.342 118.517 113.386C118.525 113.431 118.541 113.474 118.564 113.513C118.588 113.551 118.619 113.585 118.656 113.611C118.693 113.638 118.735 113.657 118.779 113.667C118.823 113.678 118.869 113.679 118.913 113.672L118.912 113.671Z" fill="#0C0C0C"/>
<path d="M74.1648 107.784L86.1976 105.433C95.2872 101.632 97.866 85.791 97.866 85.791C97.866 85.791 109.084 96.4745 135.894 90.0141C135.894 90.0141 130.07 52.5875 90.4825 63.9506C77.7182 67.6135 68.6764 80.6245 70.0211 97.8576C70.9634 109.931 74.1648 107.784 74.1648 107.784Z" fill="#0A0A0A"/>
<path d="M89.1703 120.203C85.0915 121.024 80.9068 117.326 80.0844 113.246C79.262 109.166 82.1176 106.253 86.1964 105.431L88.8484 107.742L92.6764 119.497L89.1703 120.203Z" fill="#E98862"/>
<path d="M120.509 95.1241C121.53 94.4024 122.723 93.9639 123.968 93.8531C124.594 93.7931 125.225 93.8281 125.84 93.9569C126.46 94.0833 127.062 94.2871 127.631 94.5633L127.649 94.5716C127.712 94.5995 127.784 94.6016 127.848 94.5774C127.913 94.5532 127.966 94.5047 127.995 94.4423C128.024 94.3799 128.028 94.3084 128.005 94.2432C127.983 94.1781 127.936 94.1243 127.874 94.0935C127.27 93.7748 126.629 93.5334 125.965 93.3749C125.297 93.2124 124.608 93.1513 123.921 93.1937C122.531 93.2705 121.186 93.7187 120.027 94.4917C119.984 94.5209 119.947 94.5584 119.918 94.602C119.89 94.6456 119.87 94.6944 119.86 94.7457C119.85 94.7969 119.851 94.8496 119.861 94.9007C119.872 94.9518 119.892 95.0003 119.922 95.0434C119.951 95.0865 119.989 95.1234 120.032 95.152C120.076 95.1806 120.125 95.2003 120.176 95.2099C120.227 95.2196 120.28 95.219 120.331 95.2083C120.382 95.1976 120.431 95.1769 120.474 95.1474L120.483 95.1412L120.509 95.1241Z" fill="#0C0C0C"/>
<path d="M109.517 96.6432C108.15 96.3713 106.736 96.4712 105.421 96.9324C104.772 97.1562 104.159 97.4763 103.604 97.882C103.052 98.2824 102.552 98.751 102.116 99.2765C102.072 99.3288 102.05 99.396 102.055 99.4642C102.059 99.5323 102.09 99.5961 102.141 99.642C102.191 99.688 102.257 99.7127 102.326 99.7109C102.394 99.709 102.459 99.6808 102.507 99.6322L102.521 99.6176C102.941 99.1443 103.419 98.7257 103.943 98.3716C104.462 98.0175 105.032 97.7439 105.633 97.5601C106.825 97.1854 108.096 97.1335 109.315 97.4095L109.345 97.4173C109.447 97.4421 109.555 97.4252 109.645 97.3704C109.735 97.3156 109.799 97.2273 109.824 97.125C109.849 97.0227 109.832 96.9147 109.777 96.8248C109.723 96.735 109.634 96.6705 109.532 96.6458L109.517 96.6432Z" fill="#0C0C0C"/>
<path d="M86.2056 105.235C94.2941 102.224 96.9784 96.6381 97.8049 92.4814C98.3399 89.7093 98.2898 86.8559 97.658 84.1042L97.4077 84.1733C98.0301 86.8891 98.0782 89.705 97.549 92.4404C96.7328 96.5291 94.087 102.025 86.1147 104.992L86.2056 105.235Z" fill="#0C0C0C"/>
<path d="M150.065 150.571L226.868 176.244L204.319 186.267L242.615 107.703L273.914 122.289L238.382 202.141C236.585 206.179 233.395 209.435 229.395 211.316C225.395 213.196 220.852 213.574 216.596 212.381L215.832 212.164L137.867 190.275L150.065 150.571Z" fill="#367CFF"/>
<path d="M101.785 162.518C84.0846 161.683 83.3395 146.66 83.3395 146.66C83.3395 146.66 74.5693 147.227 68.7393 148.015C59.1944 149.307 52.8976 152.543 47.8863 157.554C43.225 162.216 40.3871 167.259 43.3901 199.459C45.5645 222.774 44.0344 274.056 44.0344 274.056H151.897C151.897 274.056 159.429 199.967 160.322 189.474C162.026 169.438 166.84 165.015 157.086 154.695C150.012 147.21 131.749 146.66 124.398 146.661C124.278 146.661 125.89 163.654 101.785 162.518Z" fill="#367CFF"/>
<path d="M122.501 116.481C119.023 118.25 115.054 118.809 111.223 118.07C111.091 118.045 110.954 118.059 110.828 118.109C110.703 118.159 110.594 118.244 110.515 118.353C110.436 118.463 110.39 118.592 110.382 118.727C110.374 118.862 110.404 118.996 110.47 119.114C111.612 121.126 114.321 124.565 118.969 123.164C121.97 122.258 123.104 119.171 123.525 117.261C123.554 117.129 123.544 116.991 123.497 116.864C123.451 116.737 123.369 116.627 123.261 116.545C123.154 116.463 123.025 116.413 122.89 116.402C122.755 116.391 122.62 116.418 122.501 116.481Z" fill="white"/>
<path d="M122.718 101.013C123.646 101.013 124.399 100.261 124.399 99.3327C124.399 98.4045 123.646 97.6521 122.718 97.6521C121.79 97.6521 121.038 98.4045 121.038 99.3327C121.038 100.261 121.79 101.013 122.718 101.013Z" fill="#0C0C0C"/>
<path d="M106.569 103.84C107.497 103.84 108.25 103.088 108.25 102.16C108.25 101.231 107.497 100.479 106.569 100.479C105.641 100.479 104.889 101.231 104.889 102.16C104.889 103.088 105.641 103.84 106.569 103.84Z" fill="#0C0C0C"/>
<path d="M160.082 196.773C160.071 196.774 160.06 196.774 160.05 196.773C159.981 196.765 159.919 196.73 159.877 196.675C159.835 196.621 159.816 196.552 159.824 196.484L161.494 182.945C161.498 182.911 161.508 182.878 161.525 182.848C161.542 182.818 161.564 182.792 161.591 182.771C161.618 182.749 161.649 182.734 161.682 182.725C161.715 182.717 161.75 182.715 161.784 182.719C161.818 182.724 161.85 182.734 161.88 182.751C161.91 182.768 161.936 182.791 161.957 182.817C161.978 182.844 161.993 182.875 162.002 182.908C162.011 182.941 162.014 182.975 162.009 183.009L160.339 196.548C160.331 196.61 160.3 196.668 160.253 196.709C160.206 196.75 160.145 196.773 160.082 196.773Z" fill="#0C0C0C"/>
<path d="M433.107 92.3002C433.107 92.3002 426.674 85.0745 427.42 71.5428C427.997 61.0654 436.079 69.5387 436.079 69.5387C436.079 69.5387 436.569 61.9984 441.773 63.7938C446.978 65.5892 448.439 73.9035 448.439 73.9035" fill="#0C0C0C"/>
<path d="M469.267 70.1674C469.267 70.1674 495.255 78.3078 478.483 112.378L476.102 112.066L471.268 111.435" fill="#0C0C0C"/>
<path d="M432.298 147.9C432.417 147.884 433.738 169.805 459.204 167.894C476.833 166.573 483.119 147.869 483.523 147.869C481.622 147.465 478.421 146.878 477.577 146.427C474.801 144.935 471.366 143.384 470.471 137.993C469.956 134.885 470.83 118.99 470.561 115.846L443.5 121.886C443.878 128.525 446.525 143.917 437.249 146.642C435.706 147.092 434.042 147.507 432.298 147.9Z" fill="#E98862"/>
<path opacity="0.52" d="M443.121 140.352C443.545 138.985 443.818 137.577 443.935 136.151C444.233 132.898 444.173 129.623 443.758 126.383C449.258 125.64 454.44 123.37 458.715 119.83C459.217 121.686 461.98 129.795 461.215 131.559C459.769 134.892 452.972 140.352 443.121 140.352Z" fill="#0C0C0C"/>
<path d="M446.366 132.928C457.023 134.076 470.872 129.958 473.887 115.782L476.606 102.991C479.617 88.8169 474.617 75.74 461.269 72.9026C447.921 70.0652 435.502 79.4367 432.488 93.6127L431.284 99.2756C430.905 101.227 430.659 103.202 430.548 105.187C430.216 110.431 429.732 118.408 432.152 124.352C434.436 129.964 439.557 132.195 446.366 132.928Z" fill="#E98862"/>
<path d="M437.9 100.27C438.829 100.27 439.581 99.5174 439.581 98.5892C439.581 97.661 438.829 96.9086 437.9 96.9086C436.972 96.9086 436.22 97.661 436.22 98.5892C436.22 99.5174 436.972 100.27 437.9 100.27Z" fill="#0C0C0C"/>
<path d="M453.863 101.95C454.791 101.95 455.543 101.198 455.543 100.27C455.543 99.3416 454.791 98.5891 453.863 98.5891C452.935 98.5891 452.182 99.3416 452.182 100.27C452.182 101.198 452.935 101.95 453.863 101.95Z" fill="#0C0C0C"/>
<path d="M472.139 119.925C476.196 120.787 480.406 117.147 481.269 113.09C482.131 109.034 479.318 106.098 475.262 105.236L472.594 107.509L468.652 119.183L472.139 119.925Z" fill="#E98862"/>
<path d="M469.399 112.584C469.399 112.584 472.034 92.2 466.183 89.7427C462.29 88.1062 451.29 91.9036 442.514 88.3455C438.676 86.788 434.69 87.0216 433.929 88.83C433.627 89.5459 433.279 78.3241 441.152 71.4292C447.419 65.9392 464.068 67.355 471.052 70.9572C490.392 80.9304 475.927 106.289 475.927 106.289L473.63 113.038L469.399 112.584Z" fill="#0C0C0C"/>
<g opacity="0.52">
<path opacity="0.52" d="M442.273 114.043L442.246 114.038C440.938 113.764 438.775 113.156 438.979 112.179C439.15 111.369 443.205 103.083 443.668 102.142C443.707 102.061 443.778 101.999 443.863 101.969C443.948 101.94 444.042 101.946 444.123 101.986C444.204 102.026 444.266 102.096 444.295 102.181C444.324 102.267 444.318 102.36 444.279 102.441C442.48 106.11 439.762 111.768 439.645 112.319C439.726 112.578 441.032 113.088 442.385 113.372C442.47 113.391 442.545 113.442 442.593 113.514C442.642 113.586 442.661 113.675 442.647 113.76C442.632 113.846 442.585 113.924 442.516 113.976C442.446 114.029 442.359 114.052 442.273 114.043Z" fill="#0C0C0C"/>
</g>
<path d="M441.971 93.3319C440.686 92.6834 439.25 92.3934 437.814 92.4923C437.108 92.5367 436.413 92.6867 435.752 92.9373C435.098 93.1821 434.477 93.5086 433.905 93.9092C433.809 93.9701 433.742 94.0662 433.716 94.1768C433.691 94.2873 433.71 94.4034 433.769 94.5C433.829 94.5967 433.924 94.666 434.034 94.6931C434.144 94.7202 434.26 94.7029 434.358 94.6449L434.388 94.6278C434.913 94.3023 435.476 94.0442 436.066 93.8594C436.646 93.6738 437.252 93.5773 437.861 93.5733C439.066 93.5556 440.255 93.8567 441.306 94.446L441.345 94.4694C441.419 94.5132 441.5 94.5421 441.585 94.5543C441.67 94.5665 441.756 94.5618 441.839 94.5405C441.922 94.5192 442 94.4817 442.069 94.4301C442.137 94.3785 442.195 94.314 442.238 94.2401C442.281 94.1662 442.31 94.0845 442.321 93.9996C442.333 93.9147 442.327 93.8284 442.306 93.7456C442.284 93.6627 442.246 93.5851 442.194 93.517C442.142 93.4489 442.077 93.3918 442.002 93.349L441.971 93.3319Z" fill="#0C0C0C"/>
<path d="M451.581 95.9294C452.748 95.6299 453.974 95.6441 455.134 95.9705C455.722 96.1313 456.282 96.3801 456.796 96.7082C457.317 97.0385 457.796 97.4329 458.219 97.8821L458.243 97.9055C458.323 97.9831 458.43 98.0268 458.541 98.0275C458.653 98.0282 458.76 97.9858 458.841 97.9091C458.922 97.8325 458.97 97.7276 458.976 97.6162C458.981 97.5049 458.943 97.3957 458.87 97.3115C458.42 96.7776 457.905 96.3026 457.336 95.8978C456.761 95.486 456.128 95.1626 455.457 94.9383C454.095 94.4731 452.633 94.3834 451.224 94.6787C451.141 94.6969 451.062 94.7313 450.992 94.78C450.922 94.8287 450.862 94.8907 450.816 94.9624C450.723 95.1074 450.691 95.2835 450.728 95.4518C450.764 95.6201 450.867 95.767 451.012 95.8601C451.157 95.9532 451.333 95.9848 451.501 95.9481L451.534 95.9398L451.581 95.9294Z" fill="#0C0C0C"/>
<path d="M440.216 117.187C444.001 118.133 447.994 117.79 451.563 116.213C451.686 116.159 451.823 116.142 451.956 116.163C452.09 116.183 452.214 116.242 452.316 116.33C452.417 116.419 452.491 116.535 452.529 116.665C452.567 116.794 452.568 116.932 452.531 117.062C451.866 119.279 449.997 123.24 445.153 122.912C442.026 122.701 440.229 119.946 439.39 118.178C439.332 118.056 439.31 117.919 439.327 117.785C439.344 117.65 439.4 117.523 439.486 117.419C439.573 117.315 439.688 117.238 439.817 117.197C439.946 117.156 440.085 117.152 440.216 117.187Z" fill="white"/>
<path d="M455.237 74.3333C457.045 70.0874 456.173 65.6492 453.288 64.4203C450.404 63.1914 446.599 65.6372 444.79 69.8831C442.981 74.1291 443.854 78.5672 446.738 79.7961C449.623 81.025 453.428 78.5792 455.237 74.3333Z" fill="#0C0C0C"/>
<path d="M459.6 162.518C477.3 161.683 478.045 146.66 478.045 146.66C478.045 146.66 486.815 147.227 492.645 148.015C502.19 149.307 508.487 152.543 513.498 157.554C518.16 162.216 520.997 167.259 517.994 199.459C515.82 222.774 517.35 274.056 517.35 274.056H409.488C409.488 274.056 401.956 199.969 401.063 189.474C399.358 169.438 394.544 165.015 404.298 154.695C411.372 147.21 429.635 146.66 436.986 146.661C437.105 146.661 435.496 163.654 459.6 162.518Z" fill="#367CFF"/>
<path d="M400.808 159.335L372.921 218.457L317.925 177.1L296.082 206.146L368.904 260.909C369.556 261.393 370.237 261.837 370.943 262.238C373.023 263.404 375.313 264.148 377.682 264.429C380.05 264.71 382.451 264.521 384.747 263.874C387.042 263.227 389.188 262.135 391.061 260.658C392.935 259.182 394.499 257.351 395.665 255.27L395.98 254.708L438.527 178.766L400.808 159.335Z" fill="#367CFF"/>
<path d="M521.489 274.575H30.2882C30.1505 274.575 30.0185 274.521 29.9211 274.423C29.8237 274.326 29.769 274.194 29.769 274.056C29.769 273.918 29.8237 273.786 29.9211 273.689C30.0185 273.592 30.1505 273.537 30.2882 273.537H521.489C521.627 273.537 521.759 273.592 521.856 273.689C521.953 273.786 522.008 273.918 522.008 274.056C522.008 274.194 521.953 274.326 521.856 274.423C521.759 274.521 521.627 274.575 521.489 274.575Z" fill="#292A2E"/>
<path d="M414.649 196.831H151.616V286.74H414.649V196.831Z" fill="white"/>
<path d="M414.908 287H151.356V196.571H414.908V287ZM151.875 286.481H414.389V197.09H151.875V286.481Z" fill="#0C0C0C"/>
<path d="M138.627 224.308L154.864 217.057C155.221 216.898 155.607 216.814 155.998 216.812C156.388 216.811 156.775 216.89 157.134 217.046C157.492 217.202 157.814 217.43 158.079 217.717C158.344 218.004 158.547 218.343 158.673 218.713C158.886 219.403 158.836 220.147 158.532 220.801C158.227 221.455 157.691 221.973 157.026 222.254L153.544 223.812L166.738 223.948C168.205 223.937 170.012 224.863 169.915 226.509C169.919 227.145 169.708 227.764 169.315 228.264C168.922 228.765 168.372 229.117 167.753 229.265C167.757 229.278 167.759 229.292 167.759 229.307C167.758 229.317 167.756 229.328 167.753 229.338L170.015 229.322C170.434 229.32 170.848 229.41 171.227 229.588C171.606 229.765 171.941 230.025 172.208 230.348C172.474 230.672 172.664 231.05 172.766 231.457C172.867 231.863 172.877 232.287 172.794 232.697C172.65 233.341 172.288 233.916 171.771 234.326C171.253 234.736 170.611 234.955 169.951 234.948L168.988 234.954C168.975 234.982 168.958 235.008 168.936 235.03C169.588 235.176 170.166 235.549 170.567 236.083C170.969 236.616 171.167 237.275 171.128 237.941C171.063 238.67 170.727 239.347 170.185 239.838C169.643 240.328 168.936 240.597 168.205 240.589L165.814 240.606C165.847 240.63 165.875 240.661 165.895 240.697C165.914 240.733 165.925 240.773 165.926 240.814C165.924 240.863 165.908 240.911 165.879 240.951C166.423 241.242 166.857 241.704 167.112 242.266C167.368 242.828 167.432 243.458 167.295 244.06C167.138 244.688 166.773 245.246 166.26 245.642C165.747 246.037 165.115 246.248 164.467 246.24L144.291 246.384C141.468 246.404 138.704 245.581 136.353 244.02C134.001 242.459 132.17 240.232 131.092 237.623C130.163 235.374 130.148 232.851 131.05 230.59C131.951 228.33 133.699 226.51 135.921 225.517L138.627 224.308Z" fill="#E98862"/>
<g opacity="0.2">
<path opacity="0.2" d="M154.693 229.192C154.694 229.261 154.722 229.326 154.771 229.374C154.819 229.421 154.885 229.448 154.953 229.448L167.5 229.561C167.569 229.562 167.635 229.535 167.684 229.487C167.733 229.438 167.761 229.373 167.762 229.304C167.762 229.235 167.736 229.169 167.687 229.119C167.639 229.07 167.573 229.042 167.504 229.042L154.958 228.929C154.889 228.929 154.823 228.956 154.774 229.005C154.725 229.053 154.698 229.119 154.698 229.188L154.693 229.192Z" fill="#0C0C0C"/>
</g>
<g opacity="0.2">
<path opacity="0.2" d="M154.491 234.727C154.492 234.795 154.52 234.86 154.568 234.908C154.617 234.956 154.682 234.983 154.75 234.983L168.753 235.109C168.821 235.109 168.888 235.081 168.936 235.033C168.985 234.984 169.012 234.918 169.012 234.849C169.01 234.781 168.982 234.716 168.934 234.668C168.885 234.62 168.821 234.592 168.753 234.59L154.75 234.463C154.716 234.463 154.682 234.47 154.65 234.482C154.619 234.495 154.59 234.514 154.565 234.539C154.541 234.563 154.522 234.591 154.508 234.623C154.495 234.655 154.488 234.689 154.488 234.723L154.491 234.727Z" fill="#0C0C0C"/>
</g>
<g opacity="0.2">
<path opacity="0.2" d="M154.237 240.715C154.238 240.783 154.266 240.848 154.314 240.896C154.363 240.944 154.428 240.971 154.496 240.971L165.666 241.071C165.735 241.072 165.801 241.045 165.85 240.997C165.899 240.949 165.927 240.883 165.928 240.814C165.928 240.745 165.902 240.679 165.853 240.63C165.805 240.581 165.739 240.553 165.671 240.552L154.501 240.452C154.432 240.452 154.366 240.479 154.318 240.528C154.269 240.576 154.241 240.642 154.241 240.711L154.237 240.715Z" fill="#0C0C0C"/>
</g>
<path d="M143.275 253.219L53.2532 273.683C50.2626 274.008 47.2373 273.636 44.4146 272.596C41.592 271.556 39.0487 269.876 36.9844 267.688C34.9201 265.5 33.3909 262.863 32.5168 259.985C31.6427 257.106 31.4475 254.064 31.9465 251.098L42.2483 168.234C43.1051 163.142 45.9496 158.599 50.1561 155.604C54.3627 152.609 59.5866 151.408 64.6788 152.265C69.771 153.122 74.3142 155.966 77.3091 160.173C80.304 164.379 81.5052 169.603 80.6484 174.695L75.6875 234.005L138.232 219.851L143.275 253.219Z" fill="#367CFF"/>
<path d="M63.0314 236.336C62.9662 236.335 62.9036 236.31 62.856 236.266C62.8085 236.221 62.7794 236.16 62.7746 236.095C62.7698 236.03 62.7897 235.966 62.8303 235.915C62.8708 235.864 62.9291 235.83 62.9935 235.82L75.5377 233.141C75.5715 233.136 75.606 233.137 75.6392 233.145C75.6724 233.153 75.7037 233.168 75.7312 233.188C75.7587 233.209 75.7818 233.234 75.7992 233.264C75.8167 233.293 75.828 233.326 75.8326 233.359C75.8428 233.427 75.8255 233.497 75.7846 233.552C75.7437 233.607 75.6826 233.644 75.6146 233.654L63.0703 236.333C63.0574 236.335 63.0444 236.336 63.0314 236.336Z" fill="#0C0C0C"/>
<path d="M55.9543 274.056C55.8854 274.06 55.8176 274.037 55.7658 273.992C55.7139 273.946 55.6823 273.882 55.6778 273.813C55.6733 273.744 55.6964 273.677 55.7419 273.625C55.7874 273.573 55.8517 273.541 55.9205 273.537L142.71 253.095L137.792 220.231L75.6213 233.652C75.5811 233.657 75.5403 233.652 75.502 233.639C75.4638 233.626 75.4291 233.604 75.4007 233.575C75.3724 233.546 75.3513 233.51 75.3392 233.471C75.3271 233.432 75.3243 233.391 75.3311 233.351L78.8185 199.463C78.8237 199.429 78.8357 199.397 78.8536 199.368C78.8716 199.339 78.8952 199.313 78.9231 199.294C78.951 199.274 78.9825 199.26 79.016 199.252C79.0494 199.245 79.0839 199.244 79.1176 199.25C79.1855 199.262 79.246 199.3 79.286 199.356C79.3259 199.412 79.3419 199.482 79.3305 199.549L75.9038 233.089L137.913 219.658C137.947 219.649 137.981 219.646 138.016 219.651C138.05 219.655 138.083 219.666 138.113 219.684C138.143 219.701 138.169 219.725 138.19 219.752C138.21 219.78 138.226 219.812 138.234 219.845L143.277 253.215C143.293 253.281 143.283 253.35 143.248 253.408C143.214 253.466 143.159 253.509 143.094 253.527L55.988 274.054C55.9768 274.055 55.9655 274.056 55.9543 274.056Z" fill="#0C0C0C"/>
<path d="M422.757 239.884L406.52 232.633C406.164 232.473 405.778 232.39 405.387 232.388C404.996 232.386 404.609 232.466 404.251 232.622C403.893 232.777 403.571 233.006 403.306 233.293C403.041 233.58 402.838 233.919 402.712 234.289C402.498 234.978 402.549 235.722 402.853 236.377C403.158 237.031 403.694 237.549 404.359 237.83L407.841 239.388L394.647 239.524C393.18 239.513 391.373 240.439 391.47 242.085C391.466 242.721 391.677 243.34 392.07 243.84C392.462 244.341 393.013 244.693 393.632 244.84C393.628 244.854 393.626 244.868 393.625 244.882C393.627 244.893 393.629 244.904 393.632 244.914L391.37 244.898C390.951 244.895 390.537 244.986 390.158 245.163C389.778 245.341 389.443 245.601 389.177 245.924C388.911 246.247 388.72 246.626 388.619 247.032C388.517 247.439 388.508 247.862 388.591 248.273C388.735 248.917 389.096 249.492 389.614 249.901C390.131 250.311 390.774 250.531 391.434 250.524L392.397 250.53C392.41 250.558 392.427 250.584 392.449 250.606C391.797 250.752 391.219 251.125 390.818 251.659C390.416 252.192 390.218 252.851 390.257 253.517C390.322 254.245 390.658 254.923 391.2 255.413C391.742 255.904 392.449 256.173 393.18 256.165L395.572 256.182C395.538 256.206 395.51 256.236 395.491 256.273C395.471 256.309 395.46 256.349 395.459 256.39C395.461 256.439 395.477 256.486 395.506 256.526C394.962 256.818 394.528 257.28 394.273 257.842C394.017 258.403 393.953 259.034 394.09 259.635C394.247 260.264 394.612 260.822 395.125 261.217C395.639 261.613 396.271 261.824 396.919 261.816L417.095 261.96C419.917 261.98 422.681 261.157 425.033 259.595C427.385 258.034 429.216 255.806 430.293 253.197C431.222 250.948 431.237 248.425 430.336 246.164C429.434 243.904 427.687 242.084 425.465 241.091L422.757 239.884Z" fill="#E98862"/>
<g opacity="0.2">
<path opacity="0.2" d="M406.691 244.768C406.69 244.836 406.663 244.902 406.614 244.949C406.566 244.997 406.5 245.024 406.432 245.024L393.885 245.137C393.851 245.137 393.817 245.131 393.785 245.118C393.754 245.105 393.725 245.086 393.701 245.062C393.676 245.039 393.657 245.01 393.644 244.979C393.63 244.947 393.623 244.914 393.623 244.88C393.623 244.846 393.629 244.812 393.642 244.78C393.655 244.748 393.674 244.72 393.697 244.695C393.721 244.671 393.75 244.652 393.781 244.638C393.813 244.625 393.846 244.618 393.88 244.618L406.427 244.505C406.496 244.505 406.562 244.532 406.611 244.581C406.659 244.629 406.687 244.695 406.687 244.764L406.691 244.768Z" fill="#0C0C0C"/>
</g>
<g opacity="0.2">
<path opacity="0.2" d="M406.894 250.302C406.893 250.37 406.865 250.435 406.817 250.483C406.769 250.531 406.705 250.558 406.637 250.558L392.634 250.685C392.565 250.685 392.499 250.657 392.451 250.609C392.402 250.56 392.375 250.494 392.375 250.425C392.377 250.357 392.405 250.292 392.453 250.244C392.501 250.196 392.566 250.168 392.634 250.165L406.636 250.039C406.705 250.039 406.771 250.067 406.82 250.115C406.869 250.164 406.896 250.23 406.896 250.299L406.894 250.302Z" fill="#0C0C0C"/>
</g>
<g opacity="0.2">
<path opacity="0.2" d="M407.148 256.291C407.148 256.359 407.12 256.424 407.071 256.472C407.023 256.52 406.957 256.547 406.889 256.547L395.719 256.647C395.685 256.648 395.652 256.641 395.62 256.629C395.588 256.616 395.56 256.597 395.535 256.573C395.511 256.549 395.492 256.521 395.478 256.489C395.465 256.458 395.458 256.424 395.458 256.39C395.457 256.356 395.464 256.322 395.476 256.291C395.489 256.259 395.508 256.23 395.532 256.206C395.556 256.182 395.584 256.162 395.616 256.149C395.647 256.136 395.681 256.128 395.715 256.128L406.884 256.027C406.953 256.027 407.019 256.055 407.068 256.103C407.116 256.152 407.144 256.218 407.144 256.287L407.148 256.291Z" fill="#0C0C0C"/>
</g>
<path d="M423.302 268.794L508.131 273.683C511.122 274.008 514.147 273.636 516.97 272.596C519.793 271.556 522.336 269.876 524.4 267.688C526.464 265.5 527.994 262.863 528.868 259.984C529.742 257.106 529.937 254.064 529.438 251.098L519.138 168.232C518.714 165.71 517.797 163.297 516.44 161.13C515.084 158.963 513.313 157.084 511.23 155.601C509.148 154.118 506.793 153.06 504.301 152.487C501.809 151.914 499.229 151.838 496.708 152.262C494.186 152.686 491.773 153.603 489.606 154.96C487.439 156.317 485.56 158.087 484.077 160.17C482.594 162.253 481.536 164.607 480.963 167.099C480.39 169.591 480.314 172.171 480.738 174.693L485.699 237.637L423.674 235.424L423.302 268.794Z" fill="#367CFF"/>
<path d="M498.353 237.374C498.418 237.374 498.481 237.349 498.528 237.304C498.576 237.26 498.605 237.199 498.61 237.134C498.615 237.069 498.595 237.004 498.555 236.953C498.514 236.902 498.456 236.868 498.391 236.858L485.847 236.776C485.813 236.77 485.779 236.771 485.746 236.78C485.712 236.788 485.681 236.802 485.653 236.822C485.626 236.843 485.603 236.868 485.585 236.898C485.568 236.927 485.556 236.96 485.552 236.994C485.542 237.062 485.559 237.131 485.6 237.186C485.641 237.242 485.702 237.279 485.77 237.289L498.314 237.371C498.327 237.373 498.34 237.374 498.353 237.374Z" fill="#0C0C0C"/>
<path d="M505.431 274.056C505.5 274.06 505.568 274.037 505.62 273.992C505.671 273.946 505.703 273.882 505.707 273.813C505.712 273.744 505.689 273.676 505.643 273.624C505.597 273.573 505.533 273.541 505.464 273.537L423.866 268.673L424.11 235.808L485.762 237.288C485.802 237.293 485.843 237.289 485.881 237.276C485.92 237.262 485.954 237.24 485.983 237.211C486.011 237.182 486.032 237.147 486.044 237.108C486.056 237.069 486.059 237.028 486.052 236.988L482.565 199.465C482.56 199.432 482.548 199.399 482.53 199.37C482.512 199.341 482.488 199.316 482.461 199.296C482.433 199.276 482.401 199.262 482.368 199.255C482.334 199.247 482.3 199.246 482.266 199.253C482.233 199.258 482.2 199.27 482.171 199.288C482.142 199.306 482.117 199.33 482.098 199.358C482.078 199.386 482.064 199.417 482.056 199.45C482.048 199.483 482.047 199.518 482.053 199.552L485.482 236.726L423.992 235.236C423.958 235.227 423.924 235.224 423.889 235.229C423.855 235.233 423.822 235.244 423.792 235.262C423.762 235.279 423.736 235.303 423.715 235.33C423.695 235.358 423.68 235.39 423.671 235.423L423.3 268.793C423.284 268.859 423.295 268.928 423.329 268.986C423.363 269.044 423.419 269.087 423.484 269.105L505.395 274.051C505.407 274.053 505.419 274.055 505.431 274.056Z" fill="#0C0C0C"/>
<path d="M213.976 255.658H207.081L203.213 240.657C203.07 240.123 202.826 239.02 202.481 237.346C202.136 235.673 201.938 234.55 201.885 233.977C201.807 234.68 201.612 235.81 201.299 237.366C200.986 238.922 200.745 240.032 200.577 240.696L196.728 255.658H189.853L182.567 227.103H188.525L192.177 242.69C192.815 245.568 193.278 248.062 193.564 250.171C193.642 249.429 193.821 248.28 194.101 246.724C194.382 245.168 194.645 243.96 194.893 243.1L199.053 227.103H204.776L208.936 243.1C209.118 243.817 209.346 244.91 209.62 246.382C209.894 247.853 210.101 249.116 210.243 250.172C210.373 249.156 210.581 247.89 210.866 246.372C211.151 244.855 211.411 243.628 211.645 242.691L215.279 227.103H221.237L213.976 255.658Z" fill="#0CBC8B"/>
<path d="M241.282 255.658H224.835V227.103H241.282V232.064H230.891V238.334H240.56V243.293H230.891V250.658H241.282V255.658Z" fill="#0CBC8B"/>
<path d="M247.24 255.658V227.103H253.295V250.66H264.878V255.66L247.24 255.658Z" fill="#0CBC8B"/>
<path d="M281.97 231.73C280.943 231.684 279.921 231.894 278.996 232.342C278.072 232.791 277.273 233.463 276.674 234.299C275.424 236.011 274.799 238.398 274.8 241.458C274.8 247.827 277.189 251.011 281.968 251.011C284.463 250.914 286.925 250.405 289.254 249.505V254.584C286.76 255.589 284.09 256.087 281.402 256.049C277.248 256.049 274.071 254.789 271.869 252.269C269.668 249.749 268.568 246.132 268.568 241.418C268.509 238.728 269.064 236.059 270.19 233.615C271.188 231.472 272.813 229.681 274.848 228.478C277.016 227.249 279.477 226.632 281.968 226.69C284.87 226.721 287.728 227.409 290.327 228.702L288.373 233.625C287.323 233.125 286.248 232.681 285.15 232.296C284.13 231.93 283.055 231.738 281.97 231.73Z" fill="#0CBC8B"/>
<path d="M321.25 241.341C321.25 246.067 320.078 249.701 317.734 252.24C315.39 254.78 312.03 256.049 307.655 256.049C303.28 256.049 299.92 254.779 297.576 252.24C295.232 249.701 294.06 246.055 294.06 241.302C294.06 236.548 295.235 232.918 297.586 230.412C299.936 227.906 303.306 226.652 307.694 226.652C312.082 226.652 315.438 227.915 317.763 230.442C320.088 232.968 321.25 236.601 321.25 241.341ZM300.408 241.341C300.408 244.531 301.014 246.933 302.225 248.548C303.437 250.163 305.247 250.97 307.655 250.97C312.487 250.97 314.902 247.76 314.902 241.341C314.902 234.908 312.499 231.691 307.694 231.691C305.285 231.691 303.468 232.502 302.243 234.123C301.017 235.745 300.405 238.15 300.408 241.341Z" fill="#0CBC8B"/>
<path d="M339.259 255.658L332.384 233.254H332.208C332.455 237.812 332.579 240.853 332.579 242.376V255.658H327.168V227.103H335.412L342.17 248.941H342.287L349.456 227.103H357.699V255.658H352.054V242.141C352.054 241.504 352.063 240.768 352.082 239.934C352.102 239.1 352.189 236.887 352.346 233.293H352.171L344.807 255.658H339.259Z" fill="#0CBC8B"/>
<path d="M381.333 255.658H364.886V227.103H381.332V232.064H370.942V238.334H380.611V243.293H370.942V250.658H381.333V255.658Z" fill="#0CBC8B"/>
<line x1="0.988701" y1="293.147" x2="570.988" y2="291" stroke="white" stroke-width="6"/>
</svg>
