<svg width="84" height="84" viewBox="0 0 84 84" fill="none" xmlns="http://www.w3.org/2000/svg">
<path d="M53.2489 6.42402C53.0622 6.42812 52.874 6.44765 52.6849 6.4908C51.1717 6.83484 50.2233 8.3406 50.5675 9.85408C50.5684 9.85933 50.5711 9.86392 50.5724 9.86934L46.8296 14.4939L46.2964 15.1502L46.5734 15.9551L48.8548 22.6099L25.4505 26.5524C27.4755 28.2004 28.7284 30.745 28.6136 33.5406C28.5897 34.1286 28.5047 34.7022 28.3675 35.2529L49.7829 26.4858L49.7624 26.3269C50.7353 27.6058 52.373 28.2965 54.0896 27.9879C56.5357 27.5482 58.1393 25.2509 57.7093 22.8199C57.3329 20.6925 55.5358 19.2073 53.4538 19.1646C53.1565 19.1581 52.8573 19.181 52.5515 19.2362C52.0309 19.3297 51.5491 19.5085 51.1159 19.7539L49.7472 15.76L52.7974 11.9918C53.1616 12.0591 53.5465 12.0586 53.9306 11.9713C55.4437 11.6268 56.392 10.1212 56.0478 8.60802C55.7467 7.28404 54.5552 6.39531 53.2484 6.4237L53.2489 6.42402ZM72.1161 11.1871C71.9066 11.1936 71.6961 11.2229 71.4854 11.2793C70.798 11.4635 70.2407 11.8886 69.8753 12.4381L63.5282 11.433L62.8769 11.3306L62.3539 11.7305L56.0119 16.6011C57.0346 16.9933 57.9613 17.6036 58.7238 18.3852L63.6972 14.5658L69.8752 15.5449C70.5239 16.5252 71.7432 17.0297 72.9412 16.7088C74.4404 16.3068 75.327 14.7679 74.9253 13.2684C74.5988 12.0507 73.5226 11.2347 72.3259 11.1871C72.257 11.1843 72.1855 11.1848 72.1159 11.1871H72.1161ZM65.6868 20.6873L65.3792 20.7078L60.3958 21.0512C60.5392 21.4474 60.6534 21.8584 60.7288 22.2866C60.8371 22.8962 60.867 23.5039 60.8265 24.0965L65.287 23.7891L69.8857 25.3476C69.9011 25.4448 69.9162 25.5429 69.9421 25.6397C70.3441 27.1392 71.8884 28.0309 73.3874 27.6291C74.8866 27.2275 75.7734 25.683 75.3716 24.1838C74.97 22.6849 73.4304 21.7983 71.9312 22.1996C71.6503 22.2751 71.3909 22.3904 71.1573 22.5381L65.9788 20.7846L65.6868 20.6873ZM60.0163 27.0037C59.5397 27.9343 58.8718 28.7629 58.0579 29.4285L65.046 33.2945C65.0268 33.592 65.0566 33.8979 65.1379 34.2018C65.5398 35.7013 67.079 36.5928 68.5782 36.1912C70.0774 35.7892 70.964 34.2451 70.5624 32.7459C70.1608 31.247 68.6211 30.3601 67.122 30.7617C67.0551 30.7798 66.9919 30.8008 66.9273 30.8232L60.0162 27.0039L60.0163 27.0037ZM19.9646 27.6906C17.459 27.7198 15.3426 29.3949 14.689 31.7154L25.1276 31.0386C24.3253 29.1372 22.479 27.7815 20.2517 27.6959C20.1559 27.6923 20.0597 27.6898 19.9646 27.691V27.6906ZM25.4813 34.0891L14.7044 34.7916C15.3536 36.992 17.3435 38.6198 19.7903 38.7138C22.6352 38.8228 25.0362 36.8104 25.4813 34.0889V34.0891ZM26.8808 38.3547C25.2349 40.5249 22.5878 41.8915 19.6724 41.7797C19.4896 41.7726 19.3086 41.7621 19.129 41.7436L27.9014 55.556C29.2602 52.3738 32.1695 50.0136 35.6378 49.3984L26.8808 38.3549V38.3547ZM37.3501 52.3105C33.4823 52.3556 30.3118 55.3932 30.1519 59.2832C30.1059 60.4027 30.3156 61.4701 30.7261 62.431L42.5233 54.3564C41.2846 53.153 39.6063 52.3879 37.7245 52.3158C37.5985 52.3108 37.4751 52.3092 37.3504 52.3108L37.3501 52.3105ZM44.2151 56.9092L32.5052 64.9279C33.7232 66.0327 35.3284 66.7304 37.1194 66.7992C41.1562 66.9542 44.5321 63.8472 44.6971 59.8315C44.7395 58.7984 44.5654 57.8109 44.2151 56.9095V56.9092ZM30.0391 66.7838L28.8136 73.9103H45.9378L44.4563 67.0914C42.5053 68.9035 39.8658 69.9749 37.0066 69.8652C34.2738 69.7602 31.8222 68.596 30.0391 66.7841V66.7838ZM23.7178 76.9762V81.0367H51.5057V76.9762H23.7177H23.7178Z" fill="white"/>
</svg>
