<svg width="1920" height="738" viewBox="0 0 1920 738" fill="none" xmlns="http://www.w3.org/2000/svg">
<g filter="url(#filter0_i_63_165)">
<path d="M583.17 316.136C487.04 303.406 313.84 251.07 -6.86992 423.636C-51.3439 521.235 -103 719.404 -103 731.286C-103 743.167 583.17 841.379 926.255 889L2853 615.298L2507.43 0C2414.61 26.1679 2329.26 -33.2403 2011.86 204.392C1719.03 423.636 1145.25 401.417 926.255 371.301C751.398 347.255 679.3 328.866 583.17 316.136Z" fill="url(#paint0_linear_63_165)"/>
</g>
<path d="M99.064 531.248C99.064 527.984 99.8 525.056 101.272 522.464C102.744 519.84 104.744 517.792 107.272 516.32C109.832 514.848 112.664 514.112 115.768 514.112C119.416 514.112 122.6 514.992 125.32 516.752C128.04 518.512 130.024 521.008 131.272 524.24H126.04C125.112 522.224 123.768 520.672 122.008 519.584C120.28 518.496 118.2 517.952 115.768 517.952C113.432 517.952 111.336 518.496 109.48 519.584C107.624 520.672 106.168 522.224 105.112 524.24C104.056 526.224 103.528 528.56 103.528 531.248C103.528 533.904 104.056 536.24 105.112 538.256C106.168 540.24 107.624 541.776 109.48 542.864C111.336 543.952 113.432 544.496 115.768 544.496C118.2 544.496 120.28 543.968 122.008 542.912C123.768 541.824 125.112 540.272 126.04 538.256H131.272C130.024 541.456 128.04 543.936 125.32 545.696C122.6 547.424 119.416 548.288 115.768 548.288C112.664 548.288 109.832 547.568 107.272 546.128C104.744 544.656 102.744 542.624 101.272 540.032C99.8 537.44 99.064 534.512 99.064 531.248ZM149.246 548.432C146.782 548.432 144.542 547.872 142.526 546.752C140.542 545.632 138.974 544.048 137.822 542C136.702 539.92 136.142 537.52 136.142 534.8C136.142 532.112 136.718 529.744 137.87 527.696C139.054 525.616 140.654 524.032 142.67 522.944C144.686 521.824 146.942 521.264 149.438 521.264C151.934 521.264 154.19 521.824 156.206 522.944C158.222 524.032 159.806 525.6 160.958 527.648C162.142 529.696 162.734 532.08 162.734 534.8C162.734 537.52 162.126 539.92 160.91 542C159.726 544.048 158.11 545.632 156.062 546.752C154.014 547.872 151.742 548.432 149.246 548.432ZM149.246 544.592C150.814 544.592 152.286 544.224 153.662 543.488C155.038 542.752 156.142 541.648 156.974 540.176C157.838 538.704 158.27 536.912 158.27 534.8C158.27 532.688 157.854 530.896 157.022 529.424C156.19 527.952 155.102 526.864 153.758 526.16C152.414 525.424 150.958 525.056 149.39 525.056C147.79 525.056 146.318 525.424 144.974 526.16C143.662 526.864 142.606 527.952 141.806 529.424C141.006 530.896 140.606 532.688 140.606 534.8C140.606 536.944 140.99 538.752 141.758 540.224C142.558 541.696 143.614 542.8 144.926 543.536C146.238 544.24 147.678 544.592 149.246 544.592ZM181.293 521.216C184.493 521.216 187.085 522.192 189.069 524.144C191.053 526.064 192.045 528.848 192.045 532.496V548H187.725V533.12C187.725 530.496 187.069 528.496 185.757 527.12C184.445 525.712 182.653 525.008 180.381 525.008C178.077 525.008 176.237 525.728 174.861 527.168C173.517 528.608 172.845 530.704 172.845 533.456V548H168.477V521.696H172.845V525.44C173.709 524.096 174.877 523.056 176.349 522.32C177.853 521.584 179.501 521.216 181.293 521.216ZM204.508 525.296V540.8C204.508 542.08 204.78 542.992 205.324 543.536C205.868 544.048 206.812 544.304 208.156 544.304H211.372V548H207.436C205.004 548 203.18 547.44 201.964 546.32C200.748 545.2 200.14 543.36 200.14 540.8V525.296H196.732V521.696H200.14V515.072H204.508V521.696H211.372V525.296H204.508ZM215.033 534.752C215.033 532.064 215.577 529.712 216.665 527.696C217.753 525.648 219.241 524.064 221.129 522.944C223.049 521.824 225.177 521.264 227.513 521.264C229.817 521.264 231.817 521.76 233.513 522.752C235.209 523.744 236.473 524.992 237.305 526.496V521.696H241.721V548H237.305V543.104C236.441 544.64 235.145 545.92 233.417 546.944C231.721 547.936 229.737 548.432 227.465 548.432C225.129 548.432 223.017 547.856 221.129 546.704C219.241 545.552 217.753 543.936 216.665 541.856C215.577 539.776 215.033 537.408 215.033 534.752ZM237.305 534.8C237.305 532.816 236.905 531.088 236.105 529.616C235.305 528.144 234.217 527.024 232.841 526.256C231.497 525.456 230.009 525.056 228.377 525.056C226.745 525.056 225.257 525.44 223.913 526.208C222.569 526.976 221.497 528.096 220.697 529.568C219.897 531.04 219.497 532.768 219.497 534.752C219.497 536.768 219.897 538.528 220.697 540.032C221.497 541.504 222.569 542.64 223.913 543.44C225.257 544.208 226.745 544.592 228.377 544.592C230.009 544.592 231.497 544.208 232.841 543.44C234.217 542.64 235.305 541.504 236.105 540.032C236.905 538.528 237.305 536.784 237.305 534.8ZM247.47 534.8C247.47 532.08 248.014 529.712 249.102 527.696C250.19 525.648 251.694 524.064 253.614 522.944C255.566 521.824 257.79 521.264 260.286 521.264C263.518 521.264 266.174 522.048 268.254 523.616C270.366 525.184 271.758 527.36 272.43 530.144H267.726C267.278 528.544 266.398 527.28 265.086 526.352C263.806 525.424 262.206 524.96 260.286 524.96C257.79 524.96 255.774 525.824 254.238 527.552C252.702 529.248 251.934 531.664 251.934 534.8C251.934 537.968 252.702 540.416 254.238 542.144C255.774 543.872 257.79 544.736 260.286 544.736C262.206 544.736 263.806 544.288 265.086 543.392C266.366 542.496 267.246 541.216 267.726 539.552H272.43C271.726 542.24 270.318 544.4 268.206 546.032C266.094 547.632 263.454 548.432 260.286 548.432C257.79 548.432 255.566 547.872 253.614 546.752C251.694 545.632 250.19 544.048 249.102 542C248.014 539.952 247.47 537.552 247.47 534.8ZM283.587 525.296V540.8C283.587 542.08 283.859 542.992 284.403 543.536C284.947 544.048 285.891 544.304 287.234 544.304H290.451V548H286.515C284.083 548 282.259 547.44 281.043 546.32C279.827 545.2 279.219 543.36 279.219 540.8V525.296H275.811V521.696H279.219V515.072H283.587V521.696H290.451V525.296H283.587ZM312.812 514.544V535.712C312.812 538.688 313.532 540.896 314.972 542.336C316.444 543.776 318.476 544.496 321.068 544.496C323.628 544.496 325.628 543.776 327.068 542.336C328.54 540.896 329.276 538.688 329.276 535.712V514.544H333.644V535.664C333.644 538.448 333.084 540.8 331.964 542.72C330.844 544.608 329.324 546.016 327.404 546.944C325.516 547.872 323.388 548.336 321.02 548.336C318.652 548.336 316.508 547.872 314.588 546.944C312.7 546.016 311.196 544.608 310.076 542.72C308.988 540.8 308.444 538.448 308.444 535.664V514.544H312.812ZM350.242 548.432C348.226 548.432 346.418 548.096 344.818 547.424C343.218 546.72 341.954 545.76 341.026 544.544C340.098 543.296 339.586 541.872 339.49 540.272H344.002C344.13 541.584 344.738 542.656 345.826 543.488C346.946 544.32 348.402 544.736 350.194 544.736C351.858 544.736 353.17 544.368 354.13 543.632C355.09 542.896 355.57 541.968 355.57 540.848C355.57 539.696 355.058 538.848 354.034 538.304C353.01 537.728 351.426 537.168 349.282 536.624C347.33 536.112 345.73 535.6 344.482 535.088C343.266 534.544 342.21 533.76 341.314 532.736C340.45 531.68 340.018 530.304 340.018 528.608C340.018 527.264 340.418 526.032 341.218 524.912C342.018 523.792 343.154 522.912 344.626 522.272C346.098 521.6 347.778 521.264 349.666 521.264C352.578 521.264 354.93 522 356.722 523.472C358.514 524.944 359.474 526.96 359.602 529.52H355.234C355.138 528.144 354.578 527.04 353.554 526.208C352.562 525.376 351.218 524.96 349.522 524.96C347.954 524.96 346.706 525.296 345.778 525.968C344.85 526.64 344.386 527.52 344.386 528.608C344.386 529.472 344.658 530.192 345.202 530.768C345.778 531.312 346.482 531.76 347.314 532.112C348.178 532.432 349.362 532.8 350.866 533.216C352.754 533.728 354.29 534.24 355.474 534.752C356.658 535.232 357.666 535.968 358.498 536.96C359.362 537.952 359.81 539.248 359.842 540.848C359.842 542.288 359.442 543.584 358.642 544.736C357.842 545.888 356.706 546.8 355.234 547.472C353.794 548.112 352.13 548.432 350.242 548.432Z" fill="black"/>
<path d="M103.768 598.972V610.6C103.768 611.56 103.972 612.244 104.38 612.652C104.788 613.036 105.496 613.228 106.504 613.228H108.916V616H105.964C104.14 616 102.772 615.58 101.86 614.74C100.948 613.9 100.492 612.52 100.492 610.6V598.972H97.936V596.272H100.492V591.304H103.768V596.272H108.916V598.972H103.768ZM130.885 605.38C130.885 606.004 130.849 606.664 130.777 607.36H115.009C115.129 609.304 115.789 610.828 116.989 611.932C118.213 613.012 119.689 613.552 121.417 613.552C122.833 613.552 124.009 613.228 124.945 612.58C125.905 611.908 126.577 611.02 126.961 609.916H130.489C129.961 611.812 128.905 613.36 127.321 614.56C125.737 615.736 123.769 616.324 121.417 616.324C119.545 616.324 117.865 615.904 116.377 615.064C114.913 614.224 113.761 613.036 112.921 611.5C112.081 609.94 111.661 608.14 111.661 606.1C111.661 604.06 112.069 602.272 112.885 600.736C113.701 599.2 114.841 598.024 116.305 597.208C117.793 596.368 119.497 595.948 121.417 595.948C123.289 595.948 124.945 596.356 126.385 597.172C127.825 597.988 128.929 599.116 129.697 600.556C130.489 601.972 130.885 603.58 130.885 605.38ZM127.501 604.696C127.501 603.448 127.225 602.38 126.673 601.492C126.121 600.58 125.365 599.896 124.405 599.44C123.469 598.96 122.425 598.72 121.273 598.72C119.617 598.72 118.201 599.248 117.025 600.304C115.873 601.36 115.213 602.824 115.045 604.696H127.501ZM133.986 606.1C133.986 604.06 134.394 602.284 135.21 600.772C136.026 599.236 137.154 598.048 138.594 597.208C140.058 596.368 141.726 595.948 143.598 595.948C146.022 595.948 148.014 596.536 149.574 597.712C151.158 598.888 152.202 600.52 152.706 602.608H149.178C148.842 601.408 148.182 600.46 147.198 599.764C146.238 599.068 145.038 598.72 143.598 598.72C141.726 598.72 140.214 599.368 139.062 600.664C137.91 601.936 137.334 603.748 137.334 606.1C137.334 608.476 137.91 610.312 139.062 611.608C140.214 612.904 141.726 613.552 143.598 613.552C145.038 613.552 146.238 613.216 147.198 612.544C148.158 611.872 148.818 610.912 149.178 609.664H152.706C152.178 611.68 151.122 613.3 149.538 614.524C147.954 615.724 145.974 616.324 143.598 616.324C141.726 616.324 140.058 615.904 138.594 615.064C137.154 614.224 136.026 613.036 135.21 611.5C134.394 609.964 133.986 608.164 133.986 606.1ZM166.869 595.912C168.357 595.912 169.701 596.236 170.901 596.884C172.101 597.508 173.037 598.456 173.709 599.728C174.405 601 174.753 602.548 174.753 604.372V616H171.513V604.84C171.513 602.872 171.021 601.372 170.037 600.34C169.053 599.284 167.709 598.756 166.005 598.756C164.277 598.756 162.897 599.296 161.865 600.376C160.857 601.456 160.353 603.028 160.353 605.092V616H157.077V589.36H160.353V599.08C161.001 598.072 161.889 597.292 163.017 596.74C164.169 596.188 165.453 595.912 166.869 595.912ZM189.716 595.912C192.116 595.912 194.06 596.644 195.548 598.108C197.036 599.548 197.78 601.636 197.78 604.372V616H194.54V604.84C194.54 602.872 194.048 601.372 193.064 600.34C192.08 599.284 190.736 598.756 189.032 598.756C187.304 598.756 185.924 599.296 184.892 600.376C183.884 601.456 183.38 603.028 183.38 605.092V616H180.104V596.272H183.38V599.08C184.028 598.072 184.904 597.292 186.008 596.74C187.136 596.188 188.372 595.912 189.716 595.912ZM211.735 616.324C209.887 616.324 208.207 615.904 206.695 615.064C205.207 614.224 204.031 613.036 203.167 611.5C202.327 609.94 201.907 608.14 201.907 606.1C201.907 604.084 202.339 602.308 203.203 600.772C204.091 599.212 205.291 598.024 206.803 597.208C208.315 596.368 210.007 595.948 211.879 595.948C213.751 595.948 215.443 596.368 216.955 597.208C218.467 598.024 219.655 599.2 220.519 600.736C221.407 602.272 221.851 604.06 221.851 606.1C221.851 608.14 221.395 609.94 220.483 611.5C219.595 613.036 218.383 614.224 216.847 615.064C215.311 615.904 213.607 616.324 211.735 616.324ZM211.735 613.444C212.911 613.444 214.015 613.168 215.047 612.616C216.079 612.064 216.907 611.236 217.531 610.132C218.179 609.028 218.503 607.684 218.503 606.1C218.503 604.516 218.191 603.172 217.567 602.068C216.943 600.964 216.127 600.148 215.119 599.62C214.111 599.068 213.019 598.792 211.843 598.792C210.643 598.792 209.539 599.068 208.531 599.62C207.547 600.148 206.755 600.964 206.155 602.068C205.555 603.172 205.255 604.516 205.255 606.1C205.255 607.708 205.543 609.064 206.119 610.168C206.719 611.272 207.511 612.1 208.495 612.652C209.479 613.18 210.559 613.444 211.735 613.444ZM224.935 606.1C224.935 604.06 225.343 602.284 226.159 600.772C226.975 599.236 228.103 598.048 229.543 597.208C231.007 596.368 232.675 595.948 234.547 595.948C236.971 595.948 238.963 596.536 240.523 597.712C242.107 598.888 243.151 600.52 243.655 602.608H240.127C239.791 601.408 239.131 600.46 238.147 599.764C237.187 599.068 235.987 598.72 234.547 598.72C232.675 598.72 231.163 599.368 230.011 600.664C228.859 601.936 228.283 603.748 228.283 606.1C228.283 608.476 228.859 610.312 230.011 611.608C231.163 612.904 232.675 613.552 234.547 613.552C235.987 613.552 237.187 613.216 238.147 612.544C239.107 611.872 239.767 610.912 240.127 609.664H243.655C243.127 611.68 242.071 613.3 240.487 614.524C238.903 615.724 236.923 616.324 234.547 616.324C232.675 616.324 231.007 615.904 229.543 615.064C228.103 614.224 226.975 613.036 226.159 611.5C225.343 609.964 224.935 608.164 224.935 606.1ZM251.302 599.476C251.878 598.348 252.694 597.472 253.75 596.848C254.83 596.224 256.138 595.912 257.674 595.912V599.296H256.81C253.138 599.296 251.302 601.288 251.302 605.272V616H248.026V596.272H251.302V599.476ZM260.232 606.064C260.232 604.048 260.64 602.284 261.456 600.772C262.272 599.236 263.388 598.048 264.804 597.208C266.244 596.368 267.84 595.948 269.592 595.948C271.32 595.948 272.82 596.32 274.092 597.064C275.364 597.808 276.312 598.744 276.936 599.872V596.272H280.248V616H276.936V612.328C276.288 613.48 275.316 614.44 274.02 615.208C272.748 615.952 271.26 616.324 269.556 616.324C267.804 616.324 266.22 615.892 264.804 615.028C263.388 614.164 262.272 612.952 261.456 611.392C260.64 609.832 260.232 608.056 260.232 606.064ZM276.936 606.1C276.936 604.612 276.636 603.316 276.036 602.212C275.436 601.108 274.62 600.268 273.588 599.692C272.58 599.092 271.464 598.792 270.24 598.792C269.016 598.792 267.9 599.08 266.892 599.656C265.884 600.232 265.08 601.072 264.48 602.176C263.88 603.28 263.58 604.576 263.58 606.064C263.58 607.576 263.88 608.896 264.48 610.024C265.08 611.128 265.884 611.98 266.892 612.58C267.9 613.156 269.016 613.444 270.24 613.444C271.464 613.444 272.58 613.156 273.588 612.58C274.62 611.98 275.436 611.128 276.036 610.024C276.636 608.896 276.936 607.588 276.936 606.1ZM289.78 598.972V610.6C289.78 611.56 289.984 612.244 290.392 612.652C290.8 613.036 291.508 613.228 292.516 613.228H294.928V616H291.976C290.152 616 288.784 615.58 287.872 614.74C286.96 613.9 286.504 612.52 286.504 610.6V598.972H283.948V596.272H286.504V591.304H289.78V596.272H294.928V598.972H289.78ZM305.881 616.324C304.369 616.324 303.013 616.072 301.813 615.568C300.613 615.04 299.665 614.32 298.969 613.408C298.273 612.472 297.889 611.404 297.817 610.204H301.201C301.297 611.188 301.753 611.992 302.569 612.616C303.409 613.24 304.501 613.552 305.845 613.552C307.093 613.552 308.077 613.276 308.797 612.724C309.517 612.172 309.877 611.476 309.877 610.636C309.877 609.772 309.493 609.136 308.725 608.728C307.957 608.296 306.769 607.876 305.161 607.468C303.697 607.084 302.497 606.7 301.561 606.316C300.649 605.908 299.857 605.32 299.185 604.552C298.537 603.76 298.213 602.728 298.213 601.456C298.213 600.448 298.513 599.524 299.113 598.684C299.713 597.844 300.565 597.184 301.669 596.704C302.773 596.2 304.033 595.948 305.449 595.948C307.633 595.948 309.397 596.5 310.741 597.604C312.085 598.708 312.805 600.22 312.901 602.14H309.625C309.553 601.108 309.133 600.28 308.365 599.656C307.621 599.032 306.613 598.72 305.341 598.72C304.165 598.72 303.229 598.972 302.533 599.476C301.837 599.98 301.489 600.64 301.489 601.456C301.489 602.104 301.693 602.644 302.101 603.076C302.533 603.484 303.061 603.82 303.685 604.084C304.333 604.324 305.221 604.6 306.349 604.912C307.765 605.296 308.917 605.68 309.805 606.064C310.693 606.424 311.449 606.976 312.073 607.72C312.721 608.464 313.057 609.436 313.081 610.636C313.081 611.716 312.781 612.688 312.181 613.552C311.581 614.416 310.729 615.1 309.625 615.604C308.545 616.084 307.297 616.324 305.881 616.324ZM320.982 599.476C321.558 598.348 322.374 597.472 323.43 596.848C324.51 596.224 325.818 595.912 327.354 595.912V599.296H326.49C322.818 599.296 320.982 601.288 320.982 605.272V616H317.706V596.272H320.982V599.476ZM339.739 616.324C337.891 616.324 336.211 615.904 334.699 615.064C333.211 614.224 332.035 613.036 331.171 611.5C330.331 609.94 329.911 608.14 329.911 606.1C329.911 604.084 330.343 602.308 331.207 600.772C332.095 599.212 333.295 598.024 334.807 597.208C336.319 596.368 338.011 595.948 339.883 595.948C341.755 595.948 343.447 596.368 344.959 597.208C346.471 598.024 347.659 599.2 348.523 600.736C349.411 602.272 349.855 604.06 349.855 606.1C349.855 608.14 349.399 609.94 348.487 611.5C347.599 613.036 346.387 614.224 344.851 615.064C343.315 615.904 341.611 616.324 339.739 616.324ZM339.739 613.444C340.915 613.444 342.019 613.168 343.051 612.616C344.083 612.064 344.911 611.236 345.535 610.132C346.183 609.028 346.507 607.684 346.507 606.1C346.507 604.516 346.195 603.172 345.571 602.068C344.947 600.964 344.131 600.148 343.123 599.62C342.115 599.068 341.023 598.792 339.847 598.792C338.647 598.792 337.543 599.068 336.535 599.62C335.551 600.148 334.759 600.964 334.159 602.068C333.559 603.172 333.259 604.516 333.259 606.1C333.259 607.708 333.547 609.064 334.123 610.168C334.723 611.272 335.515 612.1 336.499 612.652C337.483 613.18 338.563 613.444 339.739 613.444ZM357.439 599.944C358.111 598.768 359.095 597.808 360.391 597.064C361.687 596.32 363.163 595.948 364.819 595.948C366.595 595.948 368.191 596.368 369.607 597.208C371.023 598.048 372.139 599.236 372.955 600.772C373.771 602.284 374.179 604.048 374.179 606.064C374.179 608.056 373.771 609.832 372.955 611.392C372.139 612.952 371.011 614.164 369.571 615.028C368.155 615.892 366.571 616.324 364.819 616.324C363.115 616.324 361.615 615.952 360.319 615.208C359.047 614.464 358.087 613.516 357.439 612.364V616H354.163V589.36H357.439V599.944ZM370.831 606.064C370.831 604.576 370.531 603.28 369.931 602.176C369.331 601.072 368.515 600.232 367.483 599.656C366.475 599.08 365.359 598.792 364.135 598.792C362.935 598.792 361.819 599.092 360.787 599.692C359.779 600.268 358.963 601.12 358.339 602.248C357.739 603.352 357.439 604.636 357.439 606.1C357.439 607.588 357.739 608.896 358.339 610.024C358.963 611.128 359.779 611.98 360.787 612.58C361.819 613.156 362.935 613.444 364.135 613.444C365.359 613.444 366.475 613.156 367.483 612.58C368.515 611.98 369.331 611.128 369.931 610.024C370.531 608.896 370.831 607.576 370.831 606.064ZM387.095 616.324C385.247 616.324 383.567 615.904 382.055 615.064C380.567 614.224 379.391 613.036 378.527 611.5C377.687 609.94 377.267 608.14 377.267 606.1C377.267 604.084 377.699 602.308 378.563 600.772C379.451 599.212 380.651 598.024 382.163 597.208C383.675 596.368 385.367 595.948 387.239 595.948C389.111 595.948 390.803 596.368 392.315 597.208C393.827 598.024 395.015 599.2 395.879 600.736C396.767 602.272 397.211 604.06 397.211 606.1C397.211 608.14 396.755 609.94 395.843 611.5C394.955 613.036 393.743 614.224 392.207 615.064C390.671 615.904 388.967 616.324 387.095 616.324ZM387.095 613.444C388.271 613.444 389.375 613.168 390.407 612.616C391.439 612.064 392.267 611.236 392.891 610.132C393.539 609.028 393.863 607.684 393.863 606.1C393.863 604.516 393.551 603.172 392.927 602.068C392.303 600.964 391.487 600.148 390.479 599.62C389.471 599.068 388.379 598.792 387.203 598.792C386.003 598.792 384.899 599.068 383.891 599.62C382.907 600.148 382.115 600.964 381.515 602.068C380.915 603.172 380.615 604.516 380.615 606.1C380.615 607.708 380.903 609.064 381.479 610.168C382.079 611.272 382.871 612.1 383.855 612.652C384.839 613.18 385.919 613.444 387.095 613.444ZM405.514 598.972V610.6C405.514 611.56 405.718 612.244 406.126 612.652C406.534 613.036 407.242 613.228 408.25 613.228H410.662V616H407.71C405.886 616 404.518 615.58 403.606 614.74C402.694 613.9 402.238 612.52 402.238 610.6V598.972H399.682V596.272H402.238V591.304H405.514V596.272H410.662V598.972H405.514ZM416.323 593.068C415.699 593.068 415.171 592.852 414.739 592.42C414.307 591.988 414.091 591.46 414.091 590.836C414.091 590.212 414.307 589.684 414.739 589.252C415.171 588.82 415.699 588.604 416.323 588.604C416.923 588.604 417.427 588.82 417.835 589.252C418.267 589.684 418.483 590.212 418.483 590.836C418.483 591.46 418.267 591.988 417.835 592.42C417.427 592.852 416.923 593.068 416.323 593.068ZM417.907 596.272V616H414.631V596.272H417.907ZM422.267 606.1C422.267 604.06 422.675 602.284 423.491 600.772C424.307 599.236 425.435 598.048 426.875 597.208C428.339 596.368 430.007 595.948 431.879 595.948C434.303 595.948 436.295 596.536 437.855 597.712C439.439 598.888 440.483 600.52 440.987 602.608H437.459C437.123 601.408 436.463 600.46 435.479 599.764C434.519 599.068 433.319 598.72 431.879 598.72C430.007 598.72 428.495 599.368 427.343 600.664C426.191 601.936 425.615 603.748 425.615 606.1C425.615 608.476 426.191 610.312 427.343 611.608C428.495 612.904 430.007 613.552 431.879 613.552C433.319 613.552 434.519 613.216 435.479 612.544C436.439 611.872 437.099 610.912 437.459 609.664H440.987C440.459 611.68 439.403 613.3 437.819 614.524C436.235 615.724 434.255 616.324 431.879 616.324C430.007 616.324 428.339 615.904 426.875 615.064C425.435 614.224 424.307 613.036 423.491 611.5C422.675 609.964 422.267 608.164 422.267 606.1ZM452.342 616.324C450.83 616.324 449.474 616.072 448.274 615.568C447.074 615.04 446.126 614.32 445.43 613.408C444.734 612.472 444.35 611.404 444.278 610.204H447.662C447.758 611.188 448.214 611.992 449.03 612.616C449.87 613.24 450.962 613.552 452.306 613.552C453.554 613.552 454.538 613.276 455.258 612.724C455.978 612.172 456.338 611.476 456.338 610.636C456.338 609.772 455.954 609.136 455.186 608.728C454.418 608.296 453.23 607.876 451.622 607.468C450.158 607.084 448.958 606.7 448.022 606.316C447.11 605.908 446.318 605.32 445.646 604.552C444.998 603.76 444.674 602.728 444.674 601.456C444.674 600.448 444.974 599.524 445.574 598.684C446.174 597.844 447.026 597.184 448.13 596.704C449.234 596.2 450.494 595.948 451.91 595.948C454.094 595.948 455.858 596.5 457.202 597.604C458.546 598.708 459.266 600.22 459.362 602.14H456.086C456.014 601.108 455.594 600.28 454.826 599.656C454.082 599.032 453.074 598.72 451.802 598.72C450.626 598.72 449.69 598.972 448.994 599.476C448.298 599.98 447.95 600.64 447.95 601.456C447.95 602.104 448.154 602.644 448.562 603.076C448.994 603.484 449.522 603.82 450.146 604.084C450.794 604.324 451.682 604.6 452.81 604.912C454.226 605.296 455.378 605.68 456.266 606.064C457.154 606.424 457.91 606.976 458.534 607.72C459.182 608.464 459.518 609.436 459.542 610.636C459.542 611.716 459.242 612.688 458.642 613.552C458.042 614.416 457.19 615.1 456.086 615.604C455.006 616.084 453.758 616.324 452.342 616.324ZM465.211 616.216C464.587 616.216 464.059 616 463.627 615.568C463.195 615.136 462.979 614.608 462.979 613.984C462.979 613.36 463.195 612.832 463.627 612.4C464.059 611.968 464.587 611.752 465.211 611.752C465.811 611.752 466.315 611.968 466.723 612.4C467.155 612.832 467.371 613.36 467.371 613.984C467.371 614.608 467.155 615.136 466.723 615.568C466.315 616 465.811 616.216 465.211 616.216ZM473.417 593.068C472.793 593.068 472.265 592.852 471.833 592.42C471.401 591.988 471.185 591.46 471.185 590.836C471.185 590.212 471.401 589.684 471.833 589.252C472.265 588.82 472.793 588.604 473.417 588.604C474.017 588.604 474.521 588.82 474.929 589.252C475.361 589.684 475.577 590.212 475.577 590.836C475.577 591.46 475.361 591.988 474.929 592.42C474.521 592.852 474.017 593.068 473.417 593.068ZM475.001 596.272V616H471.725V596.272H475.001ZM490.197 595.912C492.597 595.912 494.541 596.644 496.029 598.108C497.517 599.548 498.261 601.636 498.261 604.372V616H495.021V604.84C495.021 602.872 494.529 601.372 493.545 600.34C492.561 599.284 491.217 598.756 489.513 598.756C487.785 598.756 486.405 599.296 485.373 600.376C484.365 601.456 483.861 603.028 483.861 605.092V616H480.585V596.272H483.861V599.08C484.509 598.072 485.385 597.292 486.489 596.74C487.617 596.188 488.853 595.912 490.197 595.912Z" fill="black"/>
<defs>
<filter id="filter0_i_63_165" x="-103" y="0" width="2956" height="913" filterUnits="userSpaceOnUse" color-interpolation-filters="sRGB">
<feFlood flood-opacity="0" result="BackgroundImageFix"/>
<feBlend mode="normal" in="SourceGraphic" in2="BackgroundImageFix" result="shape"/>
<feColorMatrix in="SourceAlpha" type="matrix" values="0 0 0 0 0 0 0 0 0 0 0 0 0 0 0 0 0 0 127 0" result="hardAlpha"/>
<feOffset dy="24"/>
<feGaussianBlur stdDeviation="56"/>
<feComposite in2="hardAlpha" operator="arithmetic" k2="-1" k3="1"/>
<feColorMatrix type="matrix" values="0 0 0 0 0.533333 0 0 0 0 0.533333 0 0 0 0 0.533333 0 0 0 0.3 0"/>
<feBlend mode="normal" in2="shape" result="effect1_innerShadow_63_165"/>
</filter>
<linearGradient id="paint0_linear_63_165" x1="-486.5" y1="36.5001" x2="2086.47" y2="355.468" gradientUnits="userSpaceOnUse">
<stop stop-color="white"/>
<stop offset="0.0001" stop-color="#00369A"/>
<stop offset="0.0002" stop-color="#002A7B"/>
<stop offset="0.0003" stop-color="white"/>
<stop offset="0.8125" stop-color="white"/>
<stop offset="0.901042" stop-color="white"/>
</linearGradient>
</defs>
</svg>