<!-- 
width="247" height="334"  -->
<svg viewBox="0 0 247 334" fill="none" xmlns="http://www.w3.org/2000/svg">
<path d="M0 15C0 6.71573 6.71573 0 15 0H232C240.284 0 247 6.71573 247 15V334H0V15Z" fill="#C0C0C0"/>
<g filter="url(#filter0_ddiiii_58_304)">
<path d="M96.1243 140.248C105.34 132.568 112.684 126.184 118.156 121.096C123.628 115.912 128.188 110.536 131.836 104.968C135.484 99.4 137.308 93.928 137.308 88.552C137.308 83.656 136.156 79.816 133.852 77.032C131.548 74.248 127.996 72.856 123.196 72.856C118.396 72.856 114.7 74.488 112.108 77.752C109.516 80.92 108.172 85.288 108.076 90.856H88.4923C88.8763 79.336 92.2843 70.6 98.7163 64.648C105.244 58.696 113.5 55.72 123.484 55.72C134.428 55.72 142.828 58.648 148.684 64.504C154.54 70.264 157.468 77.896 157.468 87.4C157.468 94.888 155.452 102.04 151.42 108.856C147.388 115.672 142.78 121.624 137.596 126.712C132.412 131.704 125.644 137.752 117.292 144.856H159.772V161.56H88.6363V146.584L96.1243 140.248Z" fill="#C4C4C4"/>
</g>
<defs>
<filter id="filter0_ddiiii_58_304" x="31.4923" y="-1.28" width="185.28" height="219.84" filterUnits="userSpaceOnUse" color-interpolation-filters="sRGB">
<feFlood flood-opacity="0" result="BackgroundImageFix"/>
<feColorMatrix in="SourceAlpha" type="matrix" values="0 0 0 0 0 0 0 0 0 0 0 0 0 0 0 0 0 0 127 0" result="hardAlpha"/>
<feOffset dx="-2" dy="-2"/>
<feGaussianBlur stdDeviation="1.5"/>
<feColorMatrix type="matrix" values="0 0 0 0 0 0 0 0 0 0 0 0 0 0 0 0 0 0 0.5 0"/>
<feBlend mode="normal" in2="BackgroundImageFix" result="effect1_dropShadow_58_304"/>
<feColorMatrix in="SourceAlpha" type="matrix" values="0 0 0 0 0 0 0 0 0 0 0 0 0 0 0 0 0 0 127 0" result="hardAlpha"/>
<feOffset dx="2" dy="2"/>
<feGaussianBlur stdDeviation="1.5"/>
<feColorMatrix type="matrix" values="0 0 0 0 0 0 0 0 0 0 0 0 0 0 0 0 0 0 0.3 0"/>
<feBlend mode="normal" in2="effect1_dropShadow_58_304" result="effect2_dropShadow_58_304"/>
<feBlend mode="normal" in="SourceGraphic" in2="effect2_dropShadow_58_304" result="shape"/>
<feColorMatrix in="SourceAlpha" type="matrix" values="0 0 0 0 0 0 0 0 0 0 0 0 0 0 0 0 0 0 127 0" result="hardAlpha"/>
<feOffset dx="57" dy="57"/>
<feGaussianBlur stdDeviation="71.5"/>
<feComposite in2="hardAlpha" operator="arithmetic" k2="-1" k3="1"/>
<feColorMatrix type="matrix" values="0 0 0 0 0 0 0 0 0 0 0 0 0 0 0 0 0 0 0.9 0"/>
<feBlend mode="normal" in2="shape" result="effect3_innerShadow_58_304"/>
<feColorMatrix in="SourceAlpha" type="matrix" values="0 0 0 0 0 0 0 0 0 0 0 0 0 0 0 0 0 0 127 0" result="hardAlpha"/>
<feOffset dx="-57" dy="-57"/>
<feGaussianBlur stdDeviation="57"/>
<feComposite in2="hardAlpha" operator="arithmetic" k2="-1" k3="1"/>
<feColorMatrix type="matrix" values="0 0 0 0 0 0 0 0 0 0 0 0 0 0 0 0 0 0 0.9 0"/>
<feBlend mode="normal" in2="effect3_innerShadow_58_304" result="effect4_innerShadow_58_304"/>
<feColorMatrix in="SourceAlpha" type="matrix" values="0 0 0 0 0 0 0 0 0 0 0 0 0 0 0 0 0 0 127 0" result="hardAlpha"/>
<feOffset dx="57" dy="-57"/>
<feGaussianBlur stdDeviation="57"/>
<feComposite in2="hardAlpha" operator="arithmetic" k2="-1" k3="1"/>
<feColorMatrix type="matrix" values="0 0 0 0 0 0 0 0 0 0 0 0 0 0 0 0 0 0 0.2 0"/>
<feBlend mode="normal" in2="effect4_innerShadow_58_304" result="effect5_innerShadow_58_304"/>
<feColorMatrix in="SourceAlpha" type="matrix" values="0 0 0 0 0 0 0 0 0 0 0 0 0 0 0 0 0 0 127 0" result="hardAlpha"/>
<feOffset dx="-57" dy="57"/>
<feGaussianBlur stdDeviation="57"/>
<feComposite in2="hardAlpha" operator="arithmetic" k2="-1" k3="1"/>
<feColorMatrix type="matrix" values="0 0 0 0 0 0 0 0 0 0 0 0 0 0 0 0 0 0 0.2 0"/>
<feBlend mode="normal" in2="effect5_innerShadow_58_304" result="effect6_innerShadow_58_304"/>
</filter>
</defs>
</svg>
